<svg width="92" height="36" viewBox="0 0 92 36" fill="none" xmlns="http://www.w3.org/2000/svg">
<path fill-rule="evenodd" clip-rule="evenodd" d="M2.40999 1.15622V26.4065C2.40999 26.7164 2.29633 27.0137 2.09403 27.2328C1.89172 27.452 1.61734 27.5751 1.33123 27.5751H1.07876C0.482976 27.5751 0 27.0519 0 26.4065V1.15622C0.00629072 0.515649 0.487429 -3.62487e-05 1.07876 1.91108e-09H1.33123C1.92256 -3.62487e-05 2.4037 0.515649 2.40999 1.15622ZM15.6426 17.1625C15.8704 16.9275 16.1773 16.804 16.4915 16.8211L16.4341 16.8459C16.768 16.809 17.1002 16.9324 17.343 17.1834C17.5858 17.4345 17.715 17.7882 17.6965 18.1513V24.9892C17.6965 25.7101 17.157 26.2946 16.4915 26.2946C15.826 26.2946 15.2865 25.7101 15.2865 24.9892V18.0643C15.2861 17.7235 15.4148 17.3975 15.6426 17.1625ZM19.0863 20.7621C19.0863 20.0755 19.6001 19.5189 20.2339 19.5189C20.566 19.4859 20.8949 19.6109 21.1351 19.8616C21.3752 20.1122 21.5029 20.4636 21.4848 20.8243V22.3286C21.4848 23.0462 20.9479 23.6278 20.2856 23.6278C19.6232 23.6278 19.0863 23.0462 19.0863 22.3286V20.7621ZM10.0188 31.1059V22.1173C9.65997 22.4128 9.21854 22.5663 8.76794 22.5524C8.3546 22.5413 7.95424 22.3938 7.62032 22.1297V31.1059C7.62032 31.8234 8.15725 32.4051 8.81958 32.4051C9.48191 32.4051 10.0188 31.8234 10.0188 31.1059ZM5.01514 25.5238C4.60219 25.5104 4.20244 25.3631 3.86753 25.1011V34.1146C3.86753 34.8355 4.40702 35.42 5.07252 35.42C5.73802 35.42 6.27752 34.8355 6.27752 34.1146V25.1632C5.90277 25.4256 5.46061 25.5519 5.01514 25.5238ZM12.6813 19.4816C12.2491 19.4784 11.8283 19.3308 11.4763 19.0589V28.0973C11.4763 28.8183 12.0158 29.4027 12.6813 29.4027C13.3468 29.4027 13.8863 28.8183 13.8863 28.0973V19.0714C13.5222 19.3652 13.0778 19.5184 12.6239 19.5065L12.6813 19.4816ZM5.14139 24.5665H4.88892C4.29314 24.5665 3.81016 24.0432 3.81016 23.3978V4.16484C3.81645 3.52428 4.29759 3.00859 4.88892 3.00863H5.14139C5.73272 3.00859 6.21386 3.52428 6.22015 4.16484V23.4227C6.22015 24.0681 5.73718 24.5913 5.14139 24.5913V24.5665ZM8.67613 21.6076H8.94008C9.52953 21.6076 10.0074 21.0899 10.0074 20.4513V7.14864C10.0074 6.50804 9.53138 5.98681 8.94008 5.97999H8.67613C8.39107 5.97998 8.11785 6.1035 7.91737 6.32303C7.71688 6.54255 7.60579 6.83985 7.60885 7.14864V20.4513C7.60885 21.0899 8.08669 21.6076 8.67613 21.6076ZM12.7385 18.5616H12.4975C11.9062 18.5616 11.425 18.046 11.4187 17.4054V10.2443C11.3997 9.92165 11.5049 9.60487 11.7093 9.36929C11.9137 9.13372 12.199 9.00041 12.4975 9.00107H12.75C13.3457 9.00107 13.8287 9.52429 13.8287 10.1697V17.3805C13.8318 17.6926 13.7195 17.9931 13.5168 18.2149C13.3142 18.4368 13.0381 18.5616 12.75 18.5616H12.7385ZM16.296 15.8886H16.5485H16.56C17.1513 15.8818 17.6273 15.3606 17.6273 14.72V12.8675C17.621 12.227 17.1398 11.7113 16.5485 11.7113H16.296C15.7047 11.7113 15.2236 12.227 15.2173 12.8675V14.72C15.2173 15.3654 15.7003 15.8886 16.296 15.8886Z" fill="#9893A3" fill-opacity="0.6"/>
<path d="M42.2832 16.333C42.2832 17.8564 41.958 19.0459 41.3076 19.9014C40.6572 20.751 39.749 21.1758 38.583 21.1758C37.5518 21.1758 36.7285 20.7803 36.1133 19.9893L35.999 21H33.7139V7.5H36.2539V12.3428C36.8398 11.6572 37.6104 11.3145 38.5654 11.3145C39.7256 11.3145 40.6338 11.7422 41.29 12.5977C41.9521 13.4473 42.2832 14.6455 42.2832 16.1924V16.333ZM39.7432 16.1484C39.7432 15.1875 39.5908 14.4873 39.2861 14.0479C38.9814 13.6025 38.5273 13.3799 37.9238 13.3799C37.1152 13.3799 36.5586 13.7109 36.2539 14.373V18.126C36.5645 18.7939 37.127 19.1279 37.9414 19.1279C38.7617 19.1279 39.3008 18.7236 39.5586 17.915C39.6816 17.5283 39.7432 16.9395 39.7432 16.1484ZM50.5518 20.0332C49.9248 20.7949 49.0576 21.1758 47.9502 21.1758C46.9307 21.1758 46.1514 20.8828 45.6123 20.2969C45.0791 19.7109 44.8066 18.8525 44.7949 17.7217V11.4902H47.335V17.6338C47.335 18.624 47.7861 19.1191 48.6885 19.1191C49.5498 19.1191 50.1416 18.8203 50.4639 18.2227V11.4902H53.0127V21H50.6221L50.5518 20.0332ZM59.4795 17.4053L61.2373 11.4902H63.9619L60.1387 22.4766L59.9277 22.9775C59.3594 24.2197 58.4219 24.8408 57.1152 24.8408C56.7461 24.8408 56.3711 24.7852 55.9902 24.6738V22.749L56.377 22.7578C56.8574 22.7578 57.2148 22.6846 57.4492 22.5381C57.6895 22.3916 57.877 22.1484 58.0117 21.8086L58.3105 21.0264L54.9795 11.4902H57.7129L59.4795 17.4053ZM67.3174 11.4902L67.3525 13.0371C67.7041 12.4629 68.1436 12.0322 68.6709 11.7451C69.1982 11.458 69.7842 11.3145 70.4287 11.3145C71.9287 11.3145 72.8809 11.9297 73.2852 13.1602C73.625 12.5684 74.0791 12.1143 74.6475 11.7979C75.2158 11.4756 75.8428 11.3145 76.5283 11.3145C78.5674 11.3145 79.6074 12.4277 79.6484 14.6543V21H78.5938V14.7334C78.5879 13.8838 78.4033 13.2539 78.04 12.8438C77.6826 12.4336 77.0967 12.2285 76.2822 12.2285C75.5264 12.2402 74.8877 12.4863 74.3662 12.9668C73.8447 13.4414 73.5547 14.0215 73.4961 14.707V21H72.4414V14.6543C72.4355 13.8398 72.2422 13.2334 71.8613 12.835C71.4863 12.4307 70.9062 12.2285 70.1211 12.2285C69.459 12.2285 68.8906 12.4189 68.416 12.7998C67.9414 13.1748 67.5898 13.7344 67.3613 14.4785V21H66.3066V11.4902H67.3174ZM87.0029 21.1758C86.1943 21.1758 85.4619 20.9766 84.8057 20.5781C84.1553 20.1797 83.6484 19.626 83.2852 18.917C82.9219 18.2021 82.7402 17.4023 82.7402 16.5176V16.1396C82.7402 15.2256 82.916 14.4023 83.2676 13.6699C83.625 12.9375 84.1201 12.3633 84.7529 11.9473C85.3857 11.5254 86.0713 11.3145 86.8096 11.3145C87.9639 11.3145 88.8779 11.71 89.5518 12.501C90.2314 13.2861 90.5713 14.3613 90.5713 15.7266V16.3154H83.7861V16.5176C83.7861 17.5957 84.0938 18.4951 84.709 19.2158C85.3301 19.9307 86.1094 20.2881 87.0469 20.2881C87.6094 20.2881 88.1045 20.1855 88.5322 19.9805C88.9658 19.7754 89.3584 19.4473 89.71 18.9961L90.3691 19.4971C89.5957 20.6162 88.4736 21.1758 87.0029 21.1758ZM86.8096 12.2109C86.0186 12.2109 85.3506 12.501 84.8057 13.0811C84.2666 13.6611 83.9385 14.4404 83.8213 15.4189H89.5254V15.3047C89.4961 14.3906 89.2354 13.6465 88.7432 13.0723C88.251 12.498 87.6064 12.2109 86.8096 12.2109Z" fill="#9893A3" fill-opacity="0.6"/>
</svg>
