<svg width="600" height="498" viewBox="0 0 600 498" fill="none" xmlns="http://www.w3.org/2000/svg">
<g clip-path="url(#clip0_771_591)">
<path d="M33.186 159.048C33.186 179.742 38.1197 196.776 46.6782 211.368C49.5029 216.174 52.7094 220.749 56.2672 225.048C87.7293 263.275 146.223 284.199 199.09 318.09C355.145 418.128 372.049 257.827 365.001 159.048C362.158 119.19 346.533 82.6807 321.711 54.7262C316.497 48.8469 310.866 43.347 304.86 38.2689C276.679 14.4273 240.272 0 199.09 0C128.437 0 68.101 42.3347 44.1787 101.992C36.9058 120.146 33.1752 139.509 33.186 159.048Z" fill="#9E99FF"/>
<path d="M163.743 35.8447L321.711 54.7262C316.498 48.8469 310.866 43.347 304.86 38.2689L163.743 35.8447Z" fill="#CFCFDE"/>
<path d="M46.6784 211.368C49.5031 216.174 52.7096 220.748 56.2674 225.048L191.58 208.879L46.6784 211.368Z" fill="#CFCFDE"/>
<path d="M38.659 118.396L267.985 88.8469L44.179 101.992C42.0296 107.352 40.1867 112.829 38.659 118.396Z" fill="#CFCFDE"/>
<path d="M349.445 42.3653C349.445 42.7713 349.457 43.1714 349.492 43.5656C349.672 46.0091 350.397 48.382 351.616 50.5116C352.836 52.6412 354.518 54.4738 356.54 55.876C358.562 57.2781 360.874 58.2145 363.307 58.617C365.739 59.0194 368.232 58.8777 370.602 58.2022C372.973 57.5267 375.162 56.3345 377.01 54.7123C378.858 53.0901 380.319 51.0789 381.285 48.825C382.252 46.5711 382.701 44.1314 382.598 41.6836C382.496 39.2358 381.845 36.8415 380.694 34.675C380.337 33.9961 379.929 33.3451 379.473 32.7275C377.49 29.9948 374.711 27.9322 371.511 26.8177C368.311 25.7032 364.844 25.5905 361.577 26.4948C358.31 27.3991 355.401 29.2769 353.243 31.8748C351.084 34.4728 349.779 37.666 349.504 41.0238C349.463 41.465 349.445 41.9122 349.445 42.3653Z" fill="#9E99FF"/>
<path d="M349.445 42.3653C349.445 42.7713 349.457 43.1714 349.492 43.5656L374.321 40.6001L349.504 41.0237C349.463 41.465 349.445 41.9122 349.445 42.3653Z" fill="#CFCFDE"/>
<path d="M355.367 50.6675L378.336 53.4153C378.988 52.6932 379.575 51.9155 380.089 51.0911L355.367 50.6675Z" fill="#CFCFDE"/>
<path d="M361.882 32.4275L380.693 34.6751C380.337 33.9962 379.929 33.3452 379.473 32.7276L361.882 32.4275Z" fill="#CFCFDE"/>
<path d="M122.166 338.988C122.358 339.347 122.557 339.695 122.775 340.027C124.086 342.101 125.847 343.859 127.929 345.173C130.011 346.486 132.361 347.322 134.809 347.618C137.257 347.915 139.741 347.666 142.08 346.888C144.418 346.111 146.553 344.825 148.328 343.124C150.103 341.424 151.474 339.351 152.341 337.058C153.208 334.764 153.55 332.307 153.34 329.866C153.13 327.425 152.375 325.061 151.13 322.947C149.884 320.832 148.18 319.02 146.14 317.643C145.505 317.209 144.837 316.824 144.143 316.491C141.102 315.001 137.674 314.473 134.321 314.979C130.969 315.485 127.853 317 125.394 319.32C122.935 321.64 121.252 324.653 120.571 327.953C119.89 331.253 120.244 334.682 121.586 337.776C121.757 338.185 121.953 338.588 122.166 338.988Z" fill="#9E99FF"/>
<path d="M122.166 338.988C122.358 339.347 122.557 339.695 122.775 340.026L143.307 325.844L121.586 337.776C121.757 338.185 121.953 338.588 122.166 338.988Z" fill="#CFCFDE"/>
<path d="M131.316 343.564L152.901 335.294C153.136 334.353 153.287 333.393 153.353 332.425L131.316 343.564Z" fill="#CFCFDE"/>
<path d="M128.464 324.418L146.14 317.643C145.505 317.209 144.837 316.824 144.143 316.491L128.464 324.418Z" fill="#CFCFDE"/>
<path d="M4.70926 54.9865C4.42393 55.2772 4.15125 55.5718 3.89965 55.8787C2.31075 57.7524 1.16251 59.9546 0.538631 62.3248C-0.0852432 64.6951 -0.169067 67.1737 0.293247 69.5802C0.755558 71.9867 1.75242 74.2605 3.21113 76.2359C4.66985 78.2113 6.55371 79.8387 8.72553 80.9993C10.8974 82.16 13.3024 82.8248 15.7656 82.9454C18.2288 83.0659 20.688 82.6391 22.9641 81.6961C25.2402 80.7531 27.2761 79.3176 28.9231 77.4942C30.5702 75.6708 31.7871 73.5053 32.4853 71.1556C32.7072 70.4223 32.8728 69.6733 32.9806 68.915C33.4814 65.5831 32.9414 62.1788 31.4337 59.1613C29.926 56.1438 27.523 53.6582 24.5488 52.0398C21.5747 50.4214 18.1725 49.748 14.8011 50.1105C11.4296 50.4731 8.25125 51.854 5.69457 54.0672C5.35474 54.3544 5.02769 54.6622 4.70926 54.9865Z" fill="#9E99FF"/>
<path d="M4.70921 54.9867C4.42388 55.2774 4.1512 55.572 3.8996 55.8789L23.7585 70.9772L5.69452 54.0674C5.35467 54.3546 5.02764 54.6624 4.70921 54.9867Z" fill="#CFCFDE"/>
<path d="M3.11444 65.0383L17.6267 82.9368C18.6009 82.8721 19.5674 82.7223 20.5151 82.489L3.11444 65.0383Z" fill="#CFCFDE"/>
<path d="M20.598 56.499L32.4851 71.1556C32.707 70.4223 32.8726 69.6733 32.9805 68.915L20.598 56.499Z" fill="#CFCFDE"/>
<path d="M315.834 358.597C315.834 358.597 279.441 360.103 279.441 369.142C279.441 378.18 320.383 369.142 320.383 369.142L315.834 358.597Z" fill="#9E616A"/>
<path d="M370.424 497.187L438.661 492.668L441.694 456.514L456.858 488.149L523.579 479.11C522.062 421.866 497.8 366.129 496.284 358.597C494.767 351.065 491.143 319.942 491.143 319.942C484.517 305.977 449.792 304.667 422.572 305.932C411.29 306.444 401.282 307.409 395.111 308.101C391.032 308.553 388.621 308.885 388.621 308.885C377.748 320.017 370.742 335.187 366.436 352.134C350.908 413.189 370.424 497.187 370.424 497.187Z" fill="#2F2E41"/>
<path d="M446.243 147.698C425.306 147.698 408.334 130.837 408.334 110.038C408.334 89.2386 425.306 72.3774 446.243 72.3774C467.18 72.3774 484.153 89.2386 484.153 110.038C484.153 130.837 467.18 147.698 446.243 147.698Z" fill="#9E616A"/>
<path d="M472.022 119.076C472.022 119.076 482.636 165.775 499.317 179.333C515.997 192.891 434.112 179.333 434.112 179.333C434.112 179.333 452.309 149.205 438.661 135.647C425.014 122.089 472.022 119.076 472.022 119.076Z" fill="#9E616A"/>
<path d="M394.686 311.898L419.843 314.67L490.218 322.443C490.218 322.443 490.552 321.554 491.143 319.942C496.253 306.098 520.864 238.731 523.579 218.5C526.611 195.904 494.767 168.788 494.767 168.788C494.767 168.788 464.44 162.762 455.342 162.762C446.243 162.762 409.85 176.32 409.85 176.32L396.279 297.602L395.111 308.102L394.686 311.898Z" fill="#CFCFDE"/>
<path opacity="0.15" d="M366.436 352.134L417.432 322.443C417.432 322.443 418.327 319.55 419.843 314.669C420.601 312.229 421.526 309.277 422.572 305.932C428.456 287.162 438.328 256.19 446.243 233.564C458.374 198.916 399.235 295.327 399.235 295.327L396.278 297.602L395.111 308.102C391.032 308.553 388.621 308.885 388.621 308.885C377.748 320.017 370.742 335.187 366.436 352.134Z" fill="#2F2E41"/>
<path d="M434.112 179.333C434.112 179.333 449.276 198.916 437.145 233.564C425.014 268.212 408.334 322.443 408.334 322.443L320.383 373.661L308.252 358.597L390.137 295.327C390.137 295.327 393.17 180.839 408.334 176.32C423.497 171.801 434.112 179.333 434.112 179.333Z" fill="#CFCFDE"/>
<path d="M509.173 311.145C509.173 311.145 487.944 354.831 478.845 350.311C469.747 345.792 501.591 300.6 501.591 300.6L509.173 311.145Z" fill="#9E616A"/>
<path d="M511.448 191.384L591.816 257.667C591.816 257.667 622.143 278.756 566.037 293.821C509.931 308.885 505.382 317.923 505.382 317.923C505.382 317.923 499.317 298.34 491.735 301.353L556.939 269.718L503.866 238.083L511.448 191.384Z" fill="#CFCFDE"/>
<path d="M543.748 140.948C539.53 138.873 530.216 134.685 522.282 129.639C522.838 113.225 520.804 98.3236 514.848 90.4251C511.504 82.8839 504.484 75.334 498.985 69.3882C485.483 54.787 455.625 46.6368 450.329 53.9321C410.276 54.7176 406.059 85.907 406.059 85.907C406.267 98.9528 419.916 99.3656 431.872 98.8902C430.801 107.796 433.654 117.05 441.917 121.154C457.716 129.002 462.456 139.205 454.556 146.268C446.657 153.331 432.437 172.166 451.396 176.875C470.356 181.584 472.726 191.001 467.196 194.925C461.666 198.849 479.836 187.862 479.836 187.862C479.836 187.862 482.996 206.697 499.586 201.988C501.072 201.566 502.558 200.485 504.019 198.868C508.5 203.759 512.497 206.65 515.509 206.666C532.763 206.757 530.694 187.773 530.694 187.773C530.694 187.773 551.173 193.487 544.782 191.189C538.392 188.892 538.119 179.188 555.098 169.576C572.078 159.963 553.273 145.634 543.748 140.948Z" fill="#2F2E41"/>
<path d="M332.061 190.157L332.336 190.121L331.665 192.655C331.031 196.19 330.11 199.668 328.911 203.055L309.231 277.374C308.603 279.746 307.292 281.884 305.458 283.526C303.624 285.168 301.347 286.243 298.908 286.618L258.775 292.785C256.18 293.184 253.524 292.773 251.174 291.608C248.825 290.443 246.897 288.582 245.658 286.283L207.518 215.513C206.327 213.552 205.238 211.532 204.256 209.46L202.961 207.057L203.163 207.03C199.12 197.529 197.34 187.229 197.963 176.932C198.585 166.635 201.593 156.621 206.752 147.668C211.91 138.716 219.08 131.068 227.703 125.321C236.326 119.574 246.168 115.883 256.462 114.535C266.757 113.188 277.225 114.22 287.052 117.552C296.879 120.884 305.799 126.426 313.115 133.745C320.432 141.064 325.949 149.963 329.235 159.748C332.521 169.533 333.488 179.939 332.061 190.157H332.061Z" fill="#2F2E41"/>
<path d="M256.312 297.641C257.018 297.641 257.724 297.587 258.423 297.479L300.373 291.032C303.037 290.623 305.523 289.45 307.526 287.656C309.529 285.863 310.961 283.528 311.646 280.938L332.217 203.255C333.474 199.699 334.44 196.047 335.106 192.337L335.626 188.938C337.026 178.081 335.866 167.05 332.238 156.714C328.61 146.379 322.614 137.023 314.722 129.384C306.83 121.746 297.26 116.034 286.765 112.7C276.27 109.367 265.139 108.502 254.251 110.174L254.432 111.337C265.202 109.688 276.211 110.563 286.581 113.891C296.95 117.219 306.394 122.908 314.157 130.505C321.92 138.102 327.789 147.397 331.295 157.647C334.801 167.897 335.847 178.819 334.35 189.542L333.95 192.084C333.289 195.763 332.331 199.384 331.085 202.91L310.501 280.638C309.874 283.007 308.564 285.143 306.733 286.782C304.902 288.422 302.628 289.495 300.192 289.869L258.242 296.316C255.651 296.712 253 296.3 250.654 295.137C248.309 293.974 246.383 292.117 245.144 289.823L244.099 290.378C245.284 292.571 247.046 294.405 249.196 295.684C251.347 296.963 253.805 297.639 256.312 297.641Z" fill="#CFCFDE"/>
<path d="M245.67 207.049L271.196 276.285L269.757 276.809L244.232 207.572L245.67 207.049Z" fill="#CFCFDE"/>
<path d="M287.347 200.643L288.878 200.709L285.62 274.372L284.089 274.305L287.347 200.643Z" fill="#CFCFDE"/>
<path d="M259.858 332.859L313.612 324.598C314.012 324.534 314.37 324.316 314.608 323.99C314.846 323.665 314.945 323.26 314.883 322.862C314.821 322.465 314.604 322.108 314.278 321.869C313.952 321.631 313.544 321.53 313.143 321.589L259.389 329.851C259.19 329.88 258.998 329.949 258.825 330.052C258.652 330.155 258.501 330.292 258.381 330.453C258.261 330.615 258.175 330.798 258.127 330.993C258.079 331.188 258.07 331.391 258.101 331.589C258.132 331.787 258.202 331.977 258.307 332.149C258.412 332.32 258.55 332.469 258.713 332.587C258.877 332.705 259.062 332.79 259.258 332.837C259.455 332.883 259.659 332.891 259.858 332.859Z" fill="#2F2E41"/>
<path d="M258.48 321.519L312.234 313.258C312.433 313.228 312.625 313.16 312.798 313.056C312.971 312.953 313.122 312.816 313.242 312.655C313.362 312.493 313.448 312.31 313.496 312.115C313.545 311.92 313.553 311.718 313.523 311.519C313.492 311.321 313.422 311.131 313.316 310.96C313.211 310.788 313.073 310.639 312.91 310.521C312.746 310.403 312.561 310.318 312.365 310.272C312.168 310.225 311.965 310.217 311.765 310.249L258.011 318.51C257.811 318.54 257.62 318.608 257.447 318.712C257.273 318.815 257.123 318.952 257.003 319.113C256.883 319.275 256.797 319.458 256.749 319.653C256.7 319.848 256.692 320.051 256.722 320.249C256.753 320.447 256.823 320.637 256.929 320.809C257.034 320.98 257.172 321.129 257.335 321.247C257.498 321.365 257.684 321.45 257.88 321.496C258.077 321.543 258.28 321.551 258.48 321.519Z" fill="#2F2E41"/>
<path d="M257.101 310.179L310.855 301.918C311.255 301.854 311.613 301.636 311.851 301.31C312.089 300.985 312.188 300.58 312.127 300.182C312.065 299.785 311.847 299.428 311.521 299.189C311.195 298.951 310.787 298.85 310.387 298.909L256.633 307.17C256.233 307.234 255.875 307.453 255.637 307.778C255.399 308.103 255.3 308.509 255.362 308.906C255.424 309.303 255.641 309.66 255.967 309.899C256.293 310.137 256.701 310.238 257.101 310.179H257.101Z" fill="#2F2E41"/>
<path d="M288.406 339.458C277.743 341.097 268.181 336.522 267.046 329.239L305.659 323.305C306.793 330.587 299.068 337.819 288.406 339.458Z" fill="#2F2E41"/>
<path d="M269.084 192.462C271.377 192.11 273.275 190.309 274.315 189.102C274.656 188.706 274.988 188.296 275.321 187.884C276.533 186.386 277.676 184.971 279.27 184.234C282.786 182.604 286.929 184.88 290.516 187.322L291.383 186.067C287.439 183.381 282.84 180.9 278.622 182.854C276.706 183.742 275.394 185.363 274.127 186.931C273.804 187.33 273.482 187.728 273.151 188.112C272.07 189.367 269.912 191.401 267.601 190.931C266.626 190.649 265.72 190.173 264.938 189.531C264.342 189.089 263.712 188.694 263.054 188.35C261.719 187.714 260.225 187.485 258.759 187.691C257.294 187.896 255.922 188.528 254.817 189.507C254.423 189.877 254.05 190.269 253.699 190.681C253.01 191.461 252.359 192.198 251.512 192.466C250.26 192.864 248.936 192.153 247.534 191.401C246.088 190.626 244.592 189.824 242.896 190.022C242.841 190.028 242.786 190.036 242.731 190.044C239.713 190.508 238.322 193.824 237.534 196.298L238.996 196.757C240.065 193.393 241.368 191.72 243.076 191.534C244.291 191.392 245.513 192.047 246.806 192.74C248.428 193.61 250.106 194.51 251.977 193.916C253.23 193.52 254.054 192.587 254.851 191.685C255.165 191.316 255.499 190.963 255.851 190.63C256.731 189.864 257.817 189.37 258.975 189.207C260.133 189.045 261.314 189.221 262.374 189.714C262.96 190.024 263.522 190.378 264.053 190.774C265.004 191.544 266.108 192.106 267.293 192.423C267.883 192.542 268.489 192.555 269.084 192.462Z" fill="#CFCFDE"/>
</g>
<defs>
<clipPath id="clip0_771_591">
<rect width="600" height="497.187" fill="white" transform="matrix(-1 0 0 1 600 0)"/>
</clipPath>
</defs>
</svg>
