<svg width="79" height="29" viewBox="0 0 79 29" fill="none" xmlns="http://www.w3.org/2000/svg">
<path d="M9.75461 1.00043C8.70089 1.00072 7.69043 1.39443 6.94533 2.095C6.20024 2.79557 5.78153 3.74567 5.78122 4.73643V6.43362H3.97618C3.454 6.43321 2.93686 6.52963 2.45435 6.71733C1.97185 6.90504 1.53345 7.18037 1.16422 7.52756C0.794998 7.87473 0.502206 8.28697 0.302595 8.74064C0.102985 9.19434 0.000475699 9.68059 0.000932214 10.1716V13.9062H5.78028V17.3006H3.97525C2.92123 17.3005 1.91032 17.694 1.16484 18.3946C0.419366 19.0952 0.000368188 20.0455 0 21.0366V27.4911H3.97711C4.49879 27.4909 5.01529 27.3941 5.49717 27.206C5.97902 27.0181 6.41677 26.7428 6.78546 26.3957C7.15413 26.0487 7.44648 25.6368 7.64583 25.1834C7.84516 24.7301 7.94759 24.2444 7.94725 23.7539H7.95235V21.2881L7.94171 21.2894V5.57958L7.9505 5.58154V4.73708C7.95141 4.2868 8.14173 3.85513 8.47991 3.53631C8.81806 3.21748 9.27664 3.03739 9.75554 3.03532H16.6584V4.73708C16.657 5.18716 16.466 5.61837 16.1273 5.93641C15.7886 6.25446 15.3298 6.43347 14.8511 6.43427H8.7674V8.47133H14.8501C15.9039 8.47139 16.9144 8.07788 17.6596 7.37737C18.4047 6.67687 18.8234 5.72675 18.8235 4.736V1L9.75461 1.00043ZM5.78122 11.869H2.16975V10.1718C2.17054 9.72097 2.36108 9.28878 2.69975 8.96966C3.0384 8.65055 3.49765 8.47044 3.97711 8.46872H5.78215L5.78122 11.869ZM5.78122 23.7558C5.78042 24.2058 5.59005 24.6373 5.25177 24.9556C4.91348 25.2741 4.45482 25.4536 3.97618 25.4547H2.16882V21.0377C2.16926 20.5873 2.35989 20.1556 2.6988 19.8373C3.03773 19.519 3.49717 19.3403 3.97618 19.3405H5.78122V23.7558ZM8.7674 13.906H13.3263V15.605C13.3245 16.055 13.1334 16.486 12.7948 16.804C12.4562 17.122 11.9975 17.3011 11.5189 17.3021H8.7674V19.3405H11.5198C12.0417 19.3408 12.5585 19.2443 13.0407 19.0566C13.5229 18.869 13.9611 18.5938 14.3301 18.2468C14.6991 17.8999 14.9918 17.4879 15.1913 17.0345C15.3909 16.5812 15.4935 16.0952 15.4932 15.6045H15.4951V11.8685H8.7674V13.906Z" fill="#6C63FF"/>
<path d="M30.6606 12.29H28.2114V20.5376H25.3818V12.29H23.8232V10.9263L25.3818 10.1655V9.40479C25.3818 8.22347 25.6725 7.36068 26.2539 6.81641C26.8353 6.27214 27.7661 6 29.0464 6C30.0236 6 30.8926 6.14535 31.6533 6.43604L30.9297 8.51416C30.3607 8.3348 29.835 8.24512 29.3525 8.24512C28.9505 8.24512 28.6598 8.36572 28.4805 8.60693C28.3011 8.84196 28.2114 9.14502 28.2114 9.51611V10.1655H30.6606V12.29Z" fill="#2F2E41"/>
<path d="M39.1411 20.5376L38.7607 19.2109H38.6123C38.3092 19.6934 37.8794 20.0675 37.3228 20.3335C36.7661 20.5933 36.1322 20.7231 35.4209 20.7231C34.2025 20.7231 33.284 20.3984 32.6655 19.749C32.047 19.0934 31.7378 18.1533 31.7378 16.9287V10.1655H34.5674V16.2236C34.5674 16.972 34.7004 17.5348 34.9663 17.9121C35.2323 18.2832 35.6559 18.4688 36.2373 18.4688C37.029 18.4688 37.6011 18.2059 37.9536 17.6802C38.3062 17.1483 38.4824 16.27 38.4824 15.0454V10.1655H41.312V20.5376H39.1411Z" fill="#2F2E41"/>
<path d="M51.0171 17.4575C51.0171 18.5213 50.646 19.3315 49.9038 19.8882C49.1678 20.4448 48.0638 20.7231 46.5918 20.7231C45.8372 20.7231 45.194 20.6706 44.6621 20.5654C44.1302 20.4665 43.6323 20.318 43.1685 20.1201V17.7822C43.6942 18.0296 44.2848 18.2368 44.9404 18.4038C45.6022 18.5708 46.1836 18.6543 46.6846 18.6543C47.7113 18.6543 48.2246 18.3574 48.2246 17.7637C48.2246 17.541 48.1566 17.3617 48.0205 17.2256C47.8844 17.0833 47.6494 16.9256 47.3154 16.7524C46.9814 16.5731 46.5361 16.3659 45.9795 16.1309C45.1816 15.7969 44.5941 15.4876 44.2168 15.2031C43.8457 14.9186 43.5736 14.5939 43.4004 14.229C43.2334 13.8579 43.1499 13.4033 43.1499 12.8652C43.1499 11.9437 43.5055 11.2324 44.2168 10.7314C44.9342 10.2243 45.9486 9.9707 47.2598 9.9707C48.5091 9.9707 49.7244 10.2428 50.9058 10.7871L50.0522 12.8281C49.5327 12.6055 49.0472 12.423 48.5957 12.2808C48.1442 12.1385 47.6834 12.0674 47.2134 12.0674C46.3784 12.0674 45.9609 12.2931 45.9609 12.7446C45.9609 12.9982 46.0939 13.2178 46.3599 13.4033C46.632 13.5889 47.2227 13.8641 48.1318 14.229C48.9421 14.5568 49.5358 14.863 49.9131 15.1475C50.2904 15.432 50.5687 15.7598 50.748 16.1309C50.9274 16.502 51.0171 16.9442 51.0171 17.4575Z" fill="#2F2E41"/>
<path d="M57.0205 11.9839C56.4206 11.9839 55.9505 12.1756 55.6104 12.5591C55.2702 12.9364 55.0754 13.4744 55.0259 14.1733H58.9966C58.9842 13.4744 58.8018 12.9364 58.4492 12.5591C58.0967 12.1756 57.6204 11.9839 57.0205 11.9839ZM57.4194 20.7231C55.7495 20.7231 54.4445 20.2624 53.5044 19.3408C52.5643 18.4193 52.0942 17.1143 52.0942 15.4258C52.0942 13.6878 52.5272 12.3457 53.3931 11.3994C54.2651 10.4469 55.4681 9.9707 57.002 9.9707C58.4678 9.9707 59.6089 10.3882 60.4253 11.2231C61.2417 12.0581 61.6499 13.2116 61.6499 14.6836V16.0566H54.9609C54.9919 16.8607 55.23 17.4884 55.6753 17.9399C56.1206 18.3914 56.7453 18.6172 57.5493 18.6172C58.174 18.6172 58.7646 18.5522 59.3213 18.4224C59.8779 18.2925 60.4593 18.0853 61.0654 17.8008V19.9902C60.5706 20.2376 60.0418 20.4201 59.479 20.5376C58.9162 20.6613 58.2297 20.7231 57.4194 20.7231Z" fill="#2F2E41"/>
<path d="M66.2803 20.5376H63.4507V6.10205H66.2803V20.5376Z" fill="#2F2E41"/>
<path d="M67.2739 10.1655H70.3726L72.3301 16.001C72.4971 16.5081 72.6115 17.1081 72.6733 17.8008H72.729C72.797 17.1637 72.93 16.5638 73.1279 16.001L75.0483 10.1655H78.082L73.6938 21.8643C73.2918 22.9466 72.7166 23.7568 71.9683 24.2949C71.2261 24.833 70.3571 25.1021 69.3613 25.1021C68.8727 25.1021 68.3934 25.0495 67.9233 24.9443V22.6992C68.2635 22.7796 68.6346 22.8198 69.0366 22.8198C69.5376 22.8198 69.9736 22.6652 70.3447 22.356C70.722 22.0529 71.0158 21.5921 71.2261 20.9736L71.3931 20.4634L67.2739 10.1655Z" fill="#2F2E41"/>
</svg>
