<svg width="85" height="33" viewBox="0 0 85 33" fill="none" xmlns="http://www.w3.org/2000/svg">
<path d="M0 18.1807H2.51832V28.9157H0V18.1807Z" fill="#9893A3" fill-opacity="0.6"/>
<path fill-rule="evenodd" clip-rule="evenodd" d="M6.74057 21.6321C5.06581 22.2376 3.97581 23.6608 3.97921 25.2377C3.96784 26.2736 4.43674 27.2698 5.28012 28.0016C6.12349 28.7335 7.2703 29.1392 8.46182 29.1274C10.2756 29.1274 11.9107 28.1772 12.604 26.72C13.2973 25.2629 12.9123 23.5862 11.6285 22.4722C10.3448 21.3582 8.41534 21.0266 6.74057 21.6321ZM8.42897 23.5886C9.49776 23.5727 10.3815 24.3087 10.4092 25.2377C10.4375 25.6978 10.2432 26.1472 9.87326 26.4772C9.50331 26.8071 8.99147 26.9875 8.46168 26.9746C7.39275 26.9743 6.52388 26.225 6.5149 25.2957C6.50592 24.3664 7.36019 23.6046 8.42897 23.5886Z" fill="#9893A3" fill-opacity="0.6"/>
<path fill-rule="evenodd" clip-rule="evenodd" d="M33.1878 28.5827V21.5914L30.7114 21.6132V22.343C30.1084 21.7036 29.1936 21.3493 28.2435 21.387C25.8698 21.387 23.9456 23.0599 23.9456 25.1235C23.9456 27.1871 25.8698 28.86 28.2435 28.86C29.1943 28.9013 30.1109 28.5462 30.7114 27.904V28.5827C30.7602 29.0337 30.5653 29.4788 30.184 29.7875C29.8026 30.0962 29.2779 30.2335 28.7639 30.159C27.9754 30.2157 27.2269 29.8484 26.8752 29.2322L24.7094 30.3195C25.556 31.5175 27.1008 32.2045 28.7136 32.1002C30.9633 32.1002 33.1878 31.0566 33.1878 28.5827ZM29.5069 23.4272C30.2689 23.726 30.7456 24.3973 30.7114 25.1235C30.7269 25.5933 30.5132 26.047 30.123 26.3723C29.7327 26.6977 29.2024 26.8643 28.6631 26.8311C27.8272 26.8305 27.0756 26.3884 26.7641 25.714C26.4526 25.0396 26.6438 24.2683 27.2471 23.7653C27.8504 23.2623 28.7448 23.1285 29.5069 23.4272Z" fill="#9893A3" fill-opacity="0.6"/>
<path fill-rule="evenodd" clip-rule="evenodd" d="M16.5763 21.6831C14.9015 22.2886 13.8115 23.7119 13.8149 25.2887C13.8035 26.3246 14.2724 27.3208 15.1158 28.0527C15.9592 28.7845 17.106 29.1903 18.2975 29.1785C20.1113 29.1784 21.7464 28.2282 22.4397 26.7711C23.133 25.3139 22.748 23.6372 21.4642 22.5232C20.1805 21.4093 18.251 21.0776 16.5763 21.6831ZM18.2647 23.6397C19.3335 23.6237 20.2172 24.3597 20.2449 25.2887H20.2281C20.2562 25.7462 20.0641 26.1933 19.6979 26.5227C19.3317 26.8522 18.8243 27.0344 18.2974 27.0256C17.2285 27.0253 16.3596 26.276 16.3506 25.3467C16.3416 24.4175 17.1959 23.6556 18.2647 23.6397Z" fill="#9893A3" fill-opacity="0.6"/>
<path fill-rule="evenodd" clip-rule="evenodd" d="M36.1821 18.261C35.3383 18.261 34.6543 18.8556 34.6543 19.5892C34.6589 20.3211 35.3402 20.9134 36.1821 20.9174C37.0258 20.9174 37.7099 20.3227 37.7099 19.5892C37.7099 18.8556 37.0258 18.261 36.1821 18.261ZM37.4328 21.5596H34.9145V28.9158H37.4328V21.5596Z" fill="#9893A3" fill-opacity="0.6"/>
<path fill-rule="evenodd" clip-rule="evenodd" d="M47.3256 27.913C48.0836 27.1828 48.4751 26.2198 48.4135 25.2377C48.4728 24.2568 48.0802 23.2958 47.3225 22.5672C46.5647 21.8386 45.5043 21.4024 44.3758 21.3553C43.4248 21.3156 42.5026 21.6443 41.8574 22.2529V21.5596H39.3391V31.8787H41.8574V28.2298C42.5026 28.8384 43.4248 29.1671 44.3758 29.1274C45.5058 29.0803 46.5676 28.6432 47.3256 27.913ZM43.8639 23.5306C44.9633 23.5225 45.8671 24.2822 45.8949 25.2376H45.8781C45.918 25.721 45.7157 26.1958 45.3232 26.5398C44.9306 26.8839 44.3862 27.0636 43.8299 27.0329C42.7309 27.0087 41.8571 26.223 41.8663 25.2672C41.8756 24.3115 42.7645 23.5386 43.8639 23.5306Z" fill="#9893A3" fill-opacity="0.6"/>
<path d="M56.2544 26.7119C56.2544 28.405 54.5755 29.1275 52.7288 29.1275C51.2195 29.2436 49.7806 28.5503 49.094 27.376L51.2933 26.2886C51.4773 26.8356 52.0749 27.1971 52.7288 27.157C53.3416 27.157 53.6438 26.9892 53.6438 26.6973C53.6438 25.8872 49.4466 26.3178 49.4466 23.7782C49.4466 22.1726 51.0079 21.3626 52.8043 21.3626C54.1542 21.3269 55.4203 21.9303 56.1117 22.9389L53.904 23.946C53.7047 23.5522 53.2572 23.2976 52.7623 23.2965C52.3258 23.2965 52.0572 23.4425 52.0572 23.7125C52.0908 24.5517 56.2544 23.9898 56.2544 26.7119Z" fill="#9893A3" fill-opacity="0.6"/>
<path d="M65.5222 21.5596V28.9158H63.0039V28.2298C62.4097 28.848 61.511 29.1817 60.5863 29.1274C58.9074 29.1274 57.4216 28.0692 57.4216 26.0769V21.5596H59.94V25.7558C59.8951 26.118 60.0401 26.4784 60.3347 26.7374C60.6293 26.9963 61.0423 27.1263 61.4593 27.0913C62.3827 27.0913 63.0291 26.6243 63.0291 25.5807V21.5596H65.5222Z" fill="#9893A3" fill-opacity="0.6"/>
<path d="M80.0791 24.4056V28.9156H77.5608V24.5953C77.5608 23.8655 77.1495 23.3839 76.3436 23.3839C75.5378 23.3839 75.0173 23.902 75.0173 24.7705V28.9156H72.499V24.5953C72.499 23.8655 72.0961 23.3839 71.2818 23.3839C70.4675 23.3839 69.9639 23.902 69.9639 24.7705V28.9156H67.4456V21.5594H69.9639V22.2381C70.4986 21.6291 71.3516 21.2968 72.2304 21.3551C73.1139 21.3178 73.9551 21.6862 74.4465 22.3257C75.0175 21.6576 75.9431 21.2911 76.8977 21.3551C78.8116 21.3551 80.0791 22.5665 80.0791 24.4056Z" fill="#9893A3" fill-opacity="0.6"/>
<path d="M82.229 21.5158C83.2675 21.5158 84.1093 20.7839 84.1093 19.881C84.1093 18.9782 83.2675 18.2463 82.229 18.2463C81.1905 18.2463 80.3486 18.9782 80.3486 19.881C80.3486 20.7839 81.1905 21.5158 82.229 21.5158Z" fill="#9893A3" fill-opacity="0.6"/>
<path d="M24.4299 13.6461C28.2959 13.6461 31.4299 10.5913 31.4299 6.82304C31.4299 3.05478 28.2959 0 24.4299 0C20.5639 0 17.4299 3.05478 17.4299 6.82304C17.4299 10.5913 20.5639 13.6461 24.4299 13.6461Z" fill="#9893A3" fill-opacity="0.4"/>
<path d="M41.8594 13.6461C45.7254 13.6461 48.8594 10.5913 48.8594 6.82304C48.8594 3.05478 45.7254 0 41.8594 0C37.9934 0 34.8594 3.05478 34.8594 6.82304C34.8594 10.5913 37.9934 13.6461 41.8594 13.6461Z" fill="#CFCFDE" fill-opacity="0.5"/>
<rect width="14" height="13.6461" fill="#9893A3" fill-opacity="0.5"/>
</svg>
