<svg width="600" height="407" viewBox="0 0 600 407" fill="none" xmlns="http://www.w3.org/2000/svg">
<g clip-path="url(#clip0_771_629)">
<path d="M40.3785 306.003C37.5294 306.003 34.6745 306.121 31.8864 306.358L31.4807 306.392C12.9873 308.029 -0.539776 317.52 0.0165533 328.472L0.124105 330.452C0.195029 331.704 0.270597 333.05 0.332797 334.543C0.366486 335.28 1.37049 335.845 2.61977 335.845H457.512C489.584 335.65 521.54 335.405 552.487 335.116C558.291 335.128 564.091 334.827 569.863 334.215C578.463 333.196 584.432 331.177 588.113 328.041H588.115C592.692 324.154 592.836 319.258 592.559 313.727C591.996 302.558 591.436 290.824 590.878 279.127C590.385 268.817 589.895 258.535 589.404 248.692C589.1 242.85 588.426 237.693 583.228 233.752C577.594 229.49 567.318 227.33 552.686 227.33C552.509 227.33 552.333 227.33 552.154 227.331C506.299 227.494 460.863 243.274 439.094 266.597C436.588 269.282 434.252 272.157 431.993 274.939C428.655 279.047 425.204 283.294 421.086 287.093C418.856 289.177 416.445 291.058 413.881 292.713C413.704 292.836 413.502 292.967 413.288 293.091C412.798 293.41 412.287 293.718 411.788 293.992C408.867 295.68 405.79 297.08 402.599 298.173L402.277 298.281C402.035 298.368 401.772 298.454 401.509 298.534C399.667 299.126 397.752 299.637 395.834 300.051C387.536 301.882 378.101 302.321 367.791 301.354C358.323 300.443 348.977 298.537 339.907 295.668C330.36 292.648 321.424 288.883 312.782 285.243C308.985 283.643 305.059 281.989 301.138 280.422C300.401 280.127 299.676 279.839 298.94 279.551C294.151 277.683 289.809 276.14 285.666 274.834C275.403 271.587 264.779 269.618 254.035 268.971C242.63 268.346 232.58 269.525 224.171 272.466C221.852 273.274 219.595 274.247 217.416 275.379C207.455 280.555 201.314 288.195 195.377 295.584C187.99 304.774 180.352 314.278 165.27 319.204C147.867 324.894 122.463 322.53 104.491 318.419C98.8403 317.127 93.1967 315.64 87.7386 314.201C85.5342 313.62 83.3282 313.043 81.1207 312.469C76.7828 311.349 73.2326 310.49 69.9481 309.765L68.9092 309.534C68.3314 309.408 67.7529 309.282 67.1641 309.163C63.2627 308.343 59.63 307.698 56.0524 307.191L55.206 307.067C53.5091 306.843 51.9226 306.657 50.3659 306.501L49.7444 306.439C46.6953 306.149 43.5398 306.003 40.3785 306.003Z" fill="white"/>
<path d="M510.764 318.226C523.564 306.683 542.602 300.879 558.572 307.352C542.19 316.454 529.554 331.062 522.898 348.59C520.356 355.36 518.232 363.154 511.979 366.778C508.088 369.033 503.247 369.143 498.885 368.055C494.522 366.966 490.523 364.784 486.578 362.623L485.456 362.598C490.494 346.108 497.964 329.77 510.764 318.226Z" fill="#CFCFDE"/>
<path d="M558.483 307.702C544.339 309.531 531.131 315.774 520.734 325.544C518.458 327.607 516.522 330.017 514.996 332.684C513.594 335.33 512.925 338.303 513.059 341.295C513.128 344.088 513.522 346.936 512.912 349.696C512.578 351.105 511.951 352.427 511.071 353.576C510.192 354.725 509.079 355.674 507.807 356.363C504.682 358.161 501.097 358.728 497.573 359.16C493.659 359.64 489.587 360.076 486.199 362.273C485.789 362.539 485.4 361.886 485.81 361.621C491.704 357.799 499.161 359.189 505.499 356.639C508.456 355.448 511.072 353.359 511.999 350.2C512.808 347.438 512.405 344.501 512.31 341.674C512.137 338.757 512.679 335.842 513.891 333.183C515.276 330.447 517.117 327.967 519.333 325.849C524.248 321.001 529.893 316.956 536.063 313.863C543.085 310.294 550.665 307.953 558.476 306.942C558.959 306.88 558.963 307.64 558.483 307.702H558.483Z" fill="white"/>
<path d="M523.896 322.201C522.495 320.233 521.839 317.83 522.044 315.423C522.25 313.015 523.304 310.758 525.018 309.057C525.366 308.713 525.916 309.239 525.567 309.582C523.968 311.164 522.986 313.266 522.799 315.508C522.612 317.751 523.233 319.987 524.548 321.812C524.834 322.209 524.18 322.596 523.896 322.201V322.201Z" fill="white"/>
<path d="M512.837 339.884C517.698 340.746 522.704 339.743 526.859 337.075C527.27 336.81 527.659 337.463 527.248 337.727C522.92 340.496 517.708 341.529 512.652 340.621C512.17 340.534 512.358 339.798 512.837 339.884Z" fill="white"/>
<path d="M543.146 311.3C543.53 312.174 544.124 312.94 544.877 313.528C545.629 314.115 546.515 314.507 547.456 314.667C547.939 314.748 547.75 315.484 547.27 315.404C546.232 315.222 545.253 314.789 544.421 314.141C543.588 313.493 542.927 312.652 542.494 311.689C542.446 311.602 542.433 311.5 542.457 311.403C542.481 311.306 542.542 311.222 542.626 311.168C542.712 311.117 542.816 311.102 542.913 311.127C543.011 311.151 543.094 311.214 543.146 311.3Z" fill="white"/>
<path d="M576.158 363.019C575.855 362.977 575.552 362.935 575.245 362.898C571.17 362.357 567.059 362.148 562.95 362.273C562.633 362.278 562.311 362.287 561.994 362.301C552.099 362.708 542.366 364.95 533.289 368.913C529.679 370.493 526.194 372.346 522.865 374.456C518.267 377.369 513.513 380.894 508.373 382.083C507.838 382.213 507.296 382.309 506.749 382.372L485.512 363.97C485.485 363.904 485.453 363.842 485.426 363.776L484.544 363.08C484.708 362.959 484.881 362.837 485.045 362.717C485.14 362.646 485.24 362.58 485.335 362.509C485.399 362.464 485.465 362.418 485.52 362.373C485.542 362.358 485.564 362.343 485.581 362.332C485.637 362.287 485.693 362.252 485.745 362.212C486.709 361.528 487.68 360.851 488.657 360.179C488.661 360.174 488.661 360.174 488.67 360.173C496.066 354.981 504.052 350.685 512.459 347.376C512.711 347.28 512.967 347.18 513.229 347.093C517.016 345.684 520.911 344.587 524.875 343.813C527.048 343.396 529.24 343.09 531.443 342.895C537.137 342.402 542.873 342.809 548.441 344.1C559.54 346.676 569.692 352.775 575.705 362.287C575.859 362.531 576.008 362.77 576.158 363.019Z" fill="#CFCFDE"/>
<path d="M575.877 363.247C563.483 356.185 549.181 353.211 535.002 354.747C531.944 355.024 528.948 355.781 526.126 356.991C523.414 358.259 521.091 360.23 519.398 362.7C517.774 364.971 516.375 367.482 514.227 369.319C513.113 370.242 511.817 370.92 510.424 371.307C509.03 371.695 507.57 371.783 506.14 371.566C502.563 371.118 499.36 369.411 496.286 367.632C492.873 365.658 489.358 363.553 485.332 363.265C484.844 363.231 484.927 362.475 485.414 362.51C492.419 363.009 497.537 368.613 504.131 370.395C507.209 371.227 510.555 371.135 513.195 369.171C515.503 367.453 516.948 364.865 518.573 362.551C520.189 360.117 522.376 358.117 524.943 356.724C527.695 355.374 530.657 354.503 533.701 354.147C540.541 353.237 547.482 353.409 554.269 354.657C562.023 356.039 569.484 358.737 576.328 362.636C576.752 362.878 576.297 363.487 575.877 363.247V363.247Z" fill="white"/>
<path d="M539.539 353.984C539.604 351.568 540.525 349.255 542.138 347.456C543.751 345.657 545.95 344.491 548.343 344.165C548.827 344.101 548.949 344.851 548.464 344.915C546.236 345.215 544.187 346.301 542.689 347.979C541.191 349.657 540.341 351.816 540.294 354.066C540.283 354.555 539.528 354.47 539.539 353.984V353.984Z" fill="white"/>
<path d="M520.07 361.44C523.433 365.056 528.034 367.272 532.956 367.645C533.444 367.681 533.361 368.437 532.874 368.4C527.753 368.003 522.97 365.687 519.479 361.916C519.146 361.556 519.74 361.082 520.07 361.44H520.07Z" fill="white"/>
<path d="M561.467 356.879C561.247 357.808 561.261 358.778 561.508 359.7C561.755 360.623 562.227 361.47 562.882 362.165C563.219 362.52 562.625 362.994 562.291 362.641C561.571 361.87 561.05 360.934 560.775 359.915C560.5 358.897 560.478 357.826 560.712 356.797C560.726 356.698 560.777 356.608 560.855 356.546C560.932 356.483 561.031 356.453 561.13 356.46C561.23 356.471 561.322 356.522 561.385 356.6C561.448 356.679 561.477 356.779 561.467 356.879Z" fill="white"/>
<path d="M175.692 329.707C186.173 313.797 204.922 302.289 223.801 304.765C208.811 319.061 199.356 338.203 197.11 358.803C196.273 366.751 196.168 375.679 190.488 381.296C186.953 384.791 181.806 386.257 176.838 386.307C171.869 386.357 166.985 385.137 162.166 383.924L160.959 384.209C161.763 365.17 165.211 345.616 175.692 329.707Z" fill="#CFCFDE"/>
<path d="M223.803 305.165C209.184 311.059 196.793 321.414 188.389 334.757C186.529 337.598 185.127 340.714 184.237 343.991C183.472 347.211 183.584 350.578 184.559 353.741C185.409 356.708 186.622 359.645 186.737 362.767C186.772 364.366 186.468 365.955 185.847 367.428C185.225 368.902 184.3 370.228 183.13 371.318C180.287 374.111 176.611 375.715 172.962 377.159C168.91 378.762 164.676 380.363 161.663 383.655C161.298 384.054 160.701 383.464 161.066 383.066C166.307 377.337 174.669 376.748 180.738 372.256C183.57 370.16 185.788 367.196 185.9 363.56C185.999 360.38 184.75 357.351 183.864 354.354C182.867 351.283 182.637 348.014 183.194 344.833C183.915 341.521 185.194 338.356 186.976 335.473C190.884 328.92 195.798 323.022 201.537 317.996C208.055 312.224 215.511 307.61 223.584 304.354C224.084 304.153 224.3 304.965 223.803 305.165L223.803 305.165Z" fill="white"/>
<path d="M190.842 330.301C188.796 328.586 187.427 326.199 186.977 323.567C186.528 320.934 187.028 318.228 188.388 315.93C188.665 315.466 189.399 315.875 189.121 316.34C187.851 318.477 187.385 320.998 187.808 323.449C188.232 325.899 189.517 328.117 191.431 329.703C191.847 330.048 191.255 330.644 190.842 330.301Z" fill="white"/>
<path d="M183.93 352.293C189.368 351.861 194.444 349.394 198.145 345.384C198.511 344.986 199.109 345.576 198.743 345.973C194.883 350.14 189.596 352.696 183.936 353.133C183.397 353.174 183.393 352.334 183.93 352.293H183.93Z" fill="white"/>
<path d="M208.4 313.283C209.054 314.111 209.903 314.764 210.87 315.184C211.838 315.603 212.895 315.775 213.946 315.684C214.485 315.636 214.487 316.477 213.952 316.524C212.791 316.619 211.624 316.427 210.553 315.967C209.483 315.506 208.542 314.79 207.811 313.881C207.735 313.801 207.693 313.695 207.692 313.585C207.691 313.474 207.732 313.368 207.807 313.287C207.885 313.208 207.992 313.163 208.103 313.163C208.214 313.162 208.321 313.205 208.4 313.283H208.4Z" fill="white"/>
<path d="M258.084 359.407C257.748 359.447 257.413 359.486 257.074 359.532C252.566 360.088 248.11 361.009 243.751 362.287C243.412 362.38 243.071 362.48 242.735 362.583C232.266 365.773 222.48 370.881 213.874 377.647C210.452 380.342 207.239 383.294 204.265 386.477C200.157 390.873 196.053 395.967 190.886 398.669C190.35 398.957 189.796 399.211 189.229 399.431L161.4 385.661C161.353 385.598 161.302 385.541 161.254 385.478L160.118 384.979C160.26 384.804 160.411 384.626 160.553 384.451C160.634 384.349 160.723 384.251 160.805 384.149C160.861 384.082 160.918 384.015 160.965 383.952C160.984 383.929 161.003 383.907 161.019 383.891C161.066 383.828 161.117 383.773 161.161 383.716C162.002 382.717 162.852 381.722 163.71 380.731C163.713 380.725 163.713 380.725 163.722 380.722C170.28 373.189 177.525 366.138 185.608 360.411C185.851 360.239 186.097 360.06 186.353 359.894C190.011 357.333 193.872 355.076 197.897 353.144C200.105 352.093 202.364 351.155 204.666 350.334C210.619 348.221 216.867 347.059 223.181 346.89C235.768 346.555 248.322 350.251 257.397 358.751C257.629 358.969 257.855 359.183 258.084 359.407Z" fill="#CFCFDE"/>
<path d="M257.847 359.73C242.628 355.627 226.505 356.428 211.767 362.019C208.573 363.166 205.58 364.81 202.898 366.89C200.35 369.001 198.413 371.755 197.289 374.868C196.183 377.75 195.385 380.826 193.598 383.388C192.664 384.686 191.466 385.771 190.083 386.573C188.7 387.376 187.164 387.876 185.574 388.042C181.624 388.559 177.724 387.625 173.941 386.579C169.741 385.417 165.398 384.144 161.012 384.958C160.48 385.057 160.358 384.226 160.889 384.127C168.52 382.711 175.552 387.28 183.1 387.35C186.622 387.382 190.176 386.353 192.453 383.517C194.444 381.037 195.27 377.867 196.365 374.939C197.417 371.886 199.2 369.138 201.558 366.933C204.126 364.723 207.052 362.967 210.208 361.739C217.272 358.862 224.743 357.113 232.349 356.558C241.026 355.877 249.755 356.686 258.16 358.95C258.68 359.091 258.363 359.869 257.847 359.73Z" fill="white"/>
<path d="M216.407 359.939C215.806 357.337 216.148 354.606 217.373 352.233C218.598 349.861 220.625 348.001 223.094 346.986C223.594 346.783 223.934 347.551 223.433 347.755C221.132 348.695 219.244 350.428 218.108 352.64C216.972 354.851 216.663 357.397 217.237 359.816C217.362 360.342 216.531 360.462 216.407 359.939H216.407Z" fill="white"/>
<path d="M197.658 373.333C202.26 376.265 207.797 377.354 213.164 376.382C213.696 376.285 213.818 377.116 213.287 377.213C207.699 378.214 201.94 377.069 197.158 374.007C196.702 373.715 197.205 373.042 197.658 373.333V373.333Z" fill="white"/>
<path d="M240.665 356.93C240.688 357.985 240.973 359.018 241.494 359.936C242.014 360.854 242.754 361.628 243.648 362.189C244.107 362.476 243.604 363.148 243.148 362.864C242.163 362.239 241.347 361.383 240.769 360.37C240.192 359.357 239.871 358.218 239.835 357.053C239.822 356.943 239.852 356.833 239.918 356.744C239.983 356.656 240.08 356.596 240.189 356.576C240.299 356.56 240.41 356.589 240.5 356.655C240.589 356.721 240.648 356.82 240.665 356.93V356.93Z" fill="white"/>
<path d="M250.285 210.428C250.98 209.736 251.515 208.899 251.853 207.977C252.19 207.055 252.322 206.07 252.238 205.092C252.154 204.114 251.856 203.166 251.367 202.315C250.877 201.465 250.207 200.732 249.404 200.168L260.357 147.114L248.54 150.845L239.727 202.171C238.87 203.584 238.561 205.263 238.859 206.889C239.156 208.515 240.04 209.975 241.341 210.993C242.642 212.01 244.272 212.515 245.92 212.411C247.568 212.307 249.121 211.601 250.285 210.428Z" fill="#FFB6B6"/>
<path d="M275.603 68.6127L268.283 63.0825C268.283 63.0825 261.825 62.6248 260.681 74.2798C259.538 85.9348 252.376 130.666 252.376 130.666L241.175 182.589L256.681 185.996L268.679 129.962L280.689 91.3036L275.603 68.6127Z" fill="#CFCFDE"/>
<path d="M270.026 164.689L234.911 137.364C234.364 136.937 234.009 136.311 233.923 135.622C233.837 134.934 234.027 134.239 234.452 133.691L258.344 102.939C258.77 102.392 259.396 102.036 260.084 101.95C260.772 101.864 261.466 102.054 262.014 102.48L297.13 129.805C297.676 130.232 298.032 130.858 298.118 131.546C298.204 132.235 298.014 132.93 297.589 133.478L273.697 164.229C273.27 164.777 272.645 165.133 271.957 165.219C271.268 165.305 270.574 165.114 270.026 164.689Z" fill="#2F2E41"/>
<path d="M269.833 161.861L237.697 136.854C237.211 136.475 236.896 135.919 236.819 135.308C236.743 134.696 236.912 134.08 237.289 133.593L258.948 105.715C259.327 105.229 259.883 104.913 260.494 104.837C261.104 104.76 261.721 104.929 262.207 105.307L294.344 130.314C294.829 130.693 295.145 131.249 295.221 131.861C295.298 132.472 295.129 133.089 294.752 133.576L273.092 161.453C272.714 161.939 272.158 162.255 271.547 162.332C270.936 162.408 270.32 162.239 269.833 161.861Z" fill="white"/>
<path d="M241.91 136.145C241.789 136.05 241.71 135.911 241.691 135.758C241.672 135.606 241.714 135.451 241.808 135.33L252.735 121.266C252.829 121.145 252.968 121.066 253.121 121.046C253.197 121.037 253.273 121.043 253.347 121.063C253.42 121.083 253.489 121.117 253.549 121.164C253.61 121.211 253.66 121.269 253.698 121.336C253.735 121.402 253.76 121.475 253.769 121.551C253.778 121.627 253.773 121.703 253.753 121.777C253.733 121.851 253.698 121.919 253.651 121.98L242.725 136.043C242.63 136.164 242.491 136.243 242.339 136.263C242.186 136.282 242.032 136.239 241.91 136.145Z" fill="white"/>
<path d="M243.721 137.554C243.6 137.46 243.521 137.321 243.502 137.168C243.482 137.015 243.525 136.861 243.619 136.739L254.546 122.676C254.64 122.554 254.779 122.475 254.932 122.456C255.084 122.437 255.239 122.479 255.36 122.574C255.482 122.668 255.561 122.807 255.58 122.96C255.599 123.113 255.557 123.267 255.462 123.389L244.536 137.452C244.441 137.574 244.302 137.653 244.149 137.672C243.997 137.691 243.843 137.649 243.721 137.554Z" fill="white"/>
<path d="M251.722 130.996C251.601 130.901 251.522 130.762 251.503 130.609C251.483 130.457 251.526 130.302 251.62 130.181L256.356 124.085C256.403 124.024 256.461 123.974 256.528 123.936C256.594 123.898 256.667 123.873 256.743 123.864C256.818 123.854 256.895 123.86 256.969 123.88C257.043 123.9 257.111 123.935 257.172 123.982C257.232 124.029 257.282 124.087 257.32 124.153C257.358 124.22 257.382 124.293 257.391 124.369C257.401 124.445 257.395 124.521 257.375 124.595C257.355 124.669 257.32 124.738 257.273 124.798L252.537 130.894C252.442 131.015 252.303 131.094 252.15 131.114C251.998 131.133 251.844 131.09 251.722 130.996Z" fill="white"/>
<path d="M254.164 142.959C254.042 142.864 253.964 142.725 253.944 142.573C253.925 142.42 253.968 142.265 254.062 142.144L271.311 119.942C271.358 119.882 271.416 119.831 271.483 119.794C271.549 119.756 271.622 119.732 271.698 119.722C271.773 119.713 271.85 119.718 271.924 119.739C271.997 119.759 272.066 119.793 272.126 119.84C272.186 119.887 272.237 119.945 272.274 120.011C272.312 120.078 272.336 120.151 272.346 120.227C272.355 120.302 272.35 120.379 272.329 120.453C272.309 120.526 272.275 120.595 272.228 120.655L254.979 142.857C254.884 142.979 254.745 143.058 254.592 143.077C254.44 143.096 254.285 143.053 254.164 142.959Z" fill="white"/>
<path d="M255.975 144.368C255.853 144.274 255.774 144.135 255.755 143.982C255.736 143.829 255.778 143.675 255.873 143.553L273.122 121.351C273.169 121.291 273.227 121.241 273.293 121.203C273.36 121.165 273.433 121.141 273.508 121.131C273.584 121.122 273.661 121.128 273.734 121.148C273.808 121.168 273.877 121.202 273.937 121.249C273.997 121.296 274.047 121.354 274.085 121.421C274.123 121.487 274.147 121.56 274.157 121.636C274.166 121.712 274.161 121.788 274.14 121.862C274.12 121.936 274.086 122.004 274.039 122.065L256.789 144.266C256.695 144.388 256.556 144.467 256.403 144.486C256.25 144.505 256.096 144.463 255.975 144.368Z" fill="white"/>
<path d="M260.085 147.567C259.964 147.472 259.885 147.333 259.866 147.18C259.847 147.028 259.889 146.873 259.984 146.752L277.233 124.55C277.28 124.49 277.338 124.439 277.404 124.402C277.471 124.364 277.544 124.34 277.619 124.33C277.695 124.321 277.772 124.326 277.845 124.346C277.919 124.367 277.988 124.401 278.048 124.448C278.108 124.495 278.158 124.553 278.196 124.619C278.234 124.686 278.258 124.759 278.267 124.835C278.277 124.91 278.271 124.987 278.251 125.061C278.231 125.134 278.196 125.203 278.15 125.263L260.9 147.465C260.806 147.586 260.667 147.665 260.514 147.685C260.361 147.704 260.207 147.661 260.085 147.567Z" fill="white"/>
<path d="M261.896 148.976C261.775 148.882 261.696 148.743 261.677 148.59C261.658 148.437 261.7 148.283 261.794 148.161L279.044 125.959C279.091 125.899 279.149 125.849 279.215 125.811C279.281 125.773 279.354 125.749 279.43 125.739C279.506 125.73 279.582 125.735 279.656 125.756C279.729 125.776 279.798 125.81 279.858 125.857C279.919 125.904 279.969 125.962 280.007 126.029C280.044 126.095 280.069 126.168 280.078 126.244C280.088 126.319 280.082 126.396 280.062 126.47C280.042 126.543 280.007 126.612 279.96 126.673L262.711 148.874C262.616 148.996 262.477 149.075 262.325 149.094C262.172 149.113 262.018 149.071 261.896 148.976Z" fill="white"/>
<path d="M266.007 152.175C265.886 152.08 265.807 151.941 265.788 151.788C265.769 151.636 265.811 151.481 265.905 151.36L283.155 129.158C283.202 129.098 283.26 129.047 283.326 129.01C283.392 128.972 283.465 128.948 283.541 128.938C283.617 128.929 283.693 128.934 283.767 128.954C283.84 128.975 283.909 129.009 283.969 129.056C284.03 129.103 284.08 129.161 284.118 129.227C284.155 129.294 284.18 129.367 284.189 129.442C284.199 129.518 284.193 129.595 284.173 129.669C284.153 129.742 284.118 129.811 284.071 129.871L266.822 152.073C266.727 152.194 266.588 152.273 266.436 152.293C266.283 152.312 266.129 152.269 266.007 152.175Z" fill="white"/>
<path d="M267.818 153.584C267.697 153.489 267.618 153.35 267.599 153.198C267.58 153.045 267.622 152.89 267.716 152.769L284.966 130.567C285.06 130.446 285.199 130.367 285.352 130.349C285.504 130.33 285.658 130.372 285.779 130.467C285.901 130.561 285.98 130.7 285.999 130.852C286.018 131.005 285.976 131.159 285.882 131.28L268.633 153.482C268.538 153.604 268.399 153.683 268.247 153.702C268.094 153.721 267.94 153.679 267.818 153.584Z" fill="white"/>
<path d="M238.989 179.368C239.12 179.368 239.227 179.261 239.227 179.13C239.227 178.998 239.12 178.891 238.989 178.891C238.857 178.891 238.75 178.998 238.75 179.13C238.75 179.261 238.857 179.368 238.989 179.368Z" fill="white"/>
<path d="M273.722 14.9972C272.883 19.5052 271.508 23.8965 269.627 28.0773C258.851 50.8911 289.538 43.4549 300.505 43.4549C312.495 43.4549 323.968 49.765 322.215 21.7275C321.467 9.75112 312.495 0 300.505 0C290.263 0 275.863 4.55582 273.722 14.9972Z" fill="#2F2E41"/>
<path d="M311.682 349.593H301.466L296.604 310.158H311.682V349.593Z" fill="#FFB6B6"/>
<path d="M317.073 367.307H309.747L308.44 360.385L305.09 367.307H285.66C284.728 367.307 283.821 367.009 283.071 366.457C282.321 365.904 281.767 365.127 281.489 364.237C281.212 363.347 281.227 362.391 281.53 361.51C281.834 360.629 282.411 359.868 283.178 359.339L298.695 348.614V341.616L315.015 342.591L317.073 367.307Z" fill="#2F2E41"/>
<path d="M372.374 336.69L364.176 342.791L336.762 314.051L348.861 305.046L372.374 336.69Z" fill="#FFB6B6"/>
<path d="M387.263 347.685L381.384 352.06L376.207 347.286L377.647 354.841L362.055 366.445C361.307 367.001 360.402 367.303 359.471 367.308C358.539 367.313 357.631 367.02 356.878 366.471C356.125 365.923 355.567 365.147 355.285 364.259C355.003 363.37 355.013 362.415 355.312 361.533L361.369 343.66L357.196 338.044L370.874 329.08L387.263 347.685Z" fill="#2F2E41"/>
<path d="M278.223 168.102L326.718 160.543L317.074 131.508H278.223V168.102Z" fill="#FFB6B6"/>
<path d="M323.575 146.131C323.575 146.131 342.958 162.89 334.015 210.667L323.097 257.479L352.844 309.163L337.718 317.42L301.061 266.431L284.287 227.054L275.414 158.04L323.575 146.131Z" fill="#2F2E41"/>
<path d="M293.532 238.276L292.366 256.345L295.779 309.852L312.722 315.69L315.931 260.867L293.532 238.276Z" fill="#2F2E41"/>
<path d="M288.323 49.4688L307.068 50.2006L314.539 62.6115L331.584 65.9416L321.409 117.459L323.28 146.782L306.308 146.678C294.076 146.603 282.248 151.051 273.091 159.167L273.599 121.103L266.298 92.6893L267.939 62.8956L281.651 61.1802L288.323 49.4688Z" fill="#CFCFDE"/>
<path d="M298.708 43.4497C308.452 43.4497 316.351 35.5449 316.351 25.7937C316.351 16.0426 308.452 8.1377 298.708 8.1377C288.965 8.1377 281.066 16.0426 281.066 25.7937C281.066 35.5449 288.965 43.4497 298.708 43.4497Z" fill="#FFB6B6"/>
<path d="M286.728 7.79581C289.819 5.90967 293.36 4.88937 296.98 4.8416C300.601 4.79384 304.168 5.72036 307.308 7.52428C310.448 9.32821 313.046 11.9433 314.83 15.0961C316.615 18.2489 317.52 21.8235 317.452 25.4464C308.462 27.7052 299.018 29.4338 289.431 25.9867L287.167 20.4414L285.833 25.9908C282.913 27.185 279.986 28.1955 277.059 25.9792C276.939 22.3666 277.769 18.7859 279.466 15.595C281.163 12.404 283.667 9.71471 286.728 7.79581Z" fill="#2F2E41"/>
<path d="M328.321 182.378L330.699 203.978C330.865 204.517 331.199 204.988 331.652 205.323C332.105 205.658 332.654 205.839 333.217 205.839H344.18C344.744 205.839 345.292 205.659 345.746 205.324C346.199 204.989 346.533 204.517 346.698 203.978L348.668 187.423C349.237 187.702 349.863 187.842 350.497 187.831C351.13 187.82 351.751 187.659 352.31 187.362C352.869 187.064 353.349 186.637 353.712 186.117C354.074 185.598 354.307 184.999 354.393 184.371C354.479 183.743 354.415 183.104 354.206 182.506C353.997 181.908 353.649 181.368 353.191 180.93C352.733 180.493 352.178 180.17 351.571 179.99C350.964 179.809 350.323 179.775 349.7 179.891C349.454 179.6 349.148 179.367 348.803 179.207C348.457 179.047 348.081 178.965 347.701 178.966H330.84C330.427 178.966 330.021 179.063 329.653 179.249C329.285 179.434 328.965 179.704 328.72 180.036C328.475 180.368 328.312 180.753 328.242 181.16C328.173 181.566 328.2 181.984 328.321 182.378ZM349.013 186.303L350.219 182.378C350.359 181.925 350.373 181.443 350.259 180.982C350.311 180.98 350.359 180.967 350.411 180.967V186.685Cnan nan nan nan 350.411 186.685C349.92 186.682 349.438 186.55 349.013 186.303Z" fill="#6C63FF"/>
<path d="M344.852 205.854C344.16 205.158 343.629 204.319 343.296 203.395C342.964 202.472 342.837 201.486 342.926 200.509C343.015 199.531 343.317 198.585 343.811 197.736C344.305 196.888 344.979 196.159 345.785 195.599L335.101 142.49L346.9 146.281L355.452 197.651C356.301 199.069 356.601 200.749 356.296 202.373C355.99 203.998 355.099 205.453 353.793 206.464C352.486 207.475 350.854 207.972 349.207 207.859C347.559 207.747 346.009 207.034 344.852 205.854Z" fill="#FFB6B6"/>
<path d="M324.264 71.4716L331.584 65.9414C331.584 65.9414 338.042 65.4837 339.186 77.1387C340.33 88.7937 347.491 133.525 347.491 133.525L358.693 185.448L343.186 188.854L331.188 132.82L319.178 94.1625L324.264 71.4716Z" fill="#CFCFDE"/>
<path d="M261.083 119.817C263.372 119.817 265.227 117.96 265.227 115.67C265.227 113.379 263.372 111.522 261.083 111.522C258.795 111.522 256.939 113.379 256.939 115.67C256.939 117.96 258.795 119.817 261.083 119.817Z" fill="#6C63FF"/>
<path d="M128.941 397.703L137.577 397.702L141.686 364.366L128.94 364.367L128.941 397.703Z" fill="#FFB6B6"/>
<path d="M126.739 394.881L129.169 394.88L138.659 391.018L143.746 394.88H143.746C146.621 394.88 149.378 396.023 151.41 398.057C153.443 400.091 154.585 402.85 154.585 405.727V406.079L126.739 406.08L126.739 394.881Z" fill="#2F2E41"/>
<path d="M162.407 392.256L170.831 394.16L182.176 362.548L169.743 359.739L162.407 392.256Z" fill="#FFB6B6"/>
<path d="M160.88 389.018L163.251 389.554L173.358 387.878L177.469 392.767L177.47 392.767C180.274 393.401 182.711 395.123 184.246 397.555C185.781 399.988 186.288 402.93 185.655 405.736L185.577 406.08L158.415 399.943L160.88 389.018Z" fill="#2F2E41"/>
<path d="M113.132 226.227L120.941 313.789C120.941 313.789 118.015 366.358 127.457 384.856H141.15L147.93 308.989L148.781 258.066L178.138 301.027L159.439 383.616L176.293 385.124L206.635 295.496L173.3 211.357L113.132 226.227Z" fill="#2F2E41"/>
<path d="M121.31 86.7862C132.433 86.7862 141.45 77.7624 141.45 66.6309C141.45 55.4994 132.433 46.4756 121.31 46.4756C110.188 46.4756 101.171 55.4994 101.171 66.6309C101.171 77.7624 110.188 86.7862 121.31 86.7862Z" fill="#FFB6B6"/>
<path d="M156.714 105.993L140.192 98.8981L132.149 90.3604L112.056 93.6034L106.725 102.751L89.4673 118.811L109.687 210.304L109.075 230.288C109.075 230.288 122.015 236.118 178.138 222.694C178.811 222.533 177.402 221.828 177.402 221.828L156.714 105.993Z" fill="#2F2E41"/>
<path d="M100.368 78.0671C100.228 77.8755 100.089 77.6822 99.9515 77.4873C99.8961 77.6043 99.8521 77.7252 99.7888 77.8395L100.368 78.0671Z" fill="#2F2E41"/>
<path d="M141.344 51.8879C139.998 48.953 137.598 46.6323 134.62 45.3871C131.669 44.1959 128.371 44.1988 125.422 45.3952C122.76 43.7117 119.801 42.3771 116.686 42.2118C113.57 42.0465 110.276 43.2032 108.356 45.7495C107.928 46.4216 107.441 47.0547 106.901 47.6415C105.358 49.0718 103.012 48.8655 100.961 48.573C101.881 49.3622 102.801 50.1514 103.722 50.9405C102.608 51.2317 101.494 51.5229 100.38 51.8141C101.68 52.603 102.98 53.3919 104.28 54.1808C100.506 56.4473 98.7915 61.3941 99.2445 65.8869C99.673 70.1406 101.725 74.0302 104.178 77.4875C105.157 75.4209 104.946 72.9481 104.93 70.6205C104.913 68.1612 105.347 65.3685 107.317 63.9941C108.645 63.0669 110.353 63.0255 111.955 63.0343C120.034 63.0787 128.105 63.5829 136.127 64.5446C137.216 64.5917 138.277 64.8998 139.222 65.4429C140.996 66.6542 141.342 69.1539 141.52 71.3468C142.458 67.7259 142.916 63.9976 142.885 60.2572C142.964 57.3902 142.439 54.5386 141.344 51.8879Z" fill="#2F2E41"/>
<path d="M147.614 287.609C165.121 287.609 179.312 273.406 179.312 255.886C179.312 238.366 165.121 224.163 147.614 224.163C130.108 224.163 115.916 238.366 115.916 255.886C115.916 273.406 130.108 287.609 147.614 287.609Z" fill="white"/>
<path d="M147.614 223.458C145.985 223.458 144.358 223.58 142.747 223.824C141.923 223.944 141.12 224.099 140.323 224.289C134.476 225.638 129.117 228.587 124.847 232.806C120.576 237.025 117.56 242.349 116.136 248.183C114.712 254.017 114.936 260.133 116.783 265.847C118.63 271.562 122.027 276.65 126.595 280.545C127.137 281.003 127.686 281.447 128.257 281.87C132.369 284.939 137.151 286.986 142.209 287.844C147.266 288.702 152.455 288.345 157.348 286.804C162.241 285.262 166.698 282.58 170.353 278.978C174.007 275.376 176.755 270.957 178.37 266.084C179.985 261.212 180.42 256.025 179.641 250.951C178.861 245.877 176.888 241.061 173.885 236.899C170.883 232.737 166.935 229.348 162.368 227.011C157.8 224.674 152.744 223.456 147.614 223.458V223.458ZM147.614 286.904C141.024 286.911 134.605 284.803 129.3 280.89C128.722 280.467 128.166 280.03 127.623 279.565C123.173 275.808 119.87 270.871 118.095 265.322C116.32 259.772 116.143 253.834 117.586 248.188C119.029 242.543 122.033 237.419 126.252 233.404C130.472 229.389 135.737 226.645 141.444 225.488C142.232 225.326 143.021 225.199 143.825 225.1C145.082 224.944 146.347 224.867 147.614 224.867V286.904Cnan nan nan nan 147.614 286.904Z" fill="#2F2E41"/>
<path d="M132.067 249.541H163.162C164.301 249.541 165.224 248.617 165.224 247.477V247.375C165.224 246.235 164.301 245.311 163.162 245.311H132.067C130.927 245.311 130.004 246.235 130.004 247.375V247.477C130.004 248.617 130.927 249.541 132.067 249.541Z" fill="#6C63FF"/>
<path d="M132.067 258H163.162C164.301 258 165.224 257.076 165.224 255.936V255.835C165.224 254.695 164.301 253.771 163.162 253.771H132.067C130.927 253.771 130.004 254.695 130.004 255.835V255.936C130.004 257.076 130.927 258 132.067 258Z" fill="#6C63FF"/>
<path d="M132.067 266.46H163.162C164.301 266.46 165.224 265.536 165.224 264.396V264.294C165.224 263.154 164.301 262.23 163.162 262.23H132.067C130.927 262.23 130.004 263.154 130.004 264.294V264.396C130.004 265.536 130.927 266.46 132.067 266.46Z" fill="#6C63FF"/>
<path d="M502.249 396.626L493.194 396.626L488.886 361.671L502.25 361.672L502.249 396.626Z" fill="#9E616A"/>
<path d="M459.409 396.626L450.354 396.626L446.046 361.671L459.411 361.672L459.409 396.626Z" fill="#9E616A"/>
<path d="M459.728 406.08L431.882 406.079V405.727C431.882 402.85 433.024 400.091 435.057 398.057C437.089 396.023 439.846 394.88 442.72 394.88H442.721L447.808 391.018L457.298 394.88L459.728 394.881L459.728 406.08Z" fill="#2F2E41"/>
<path d="M503.729 406.08L475.884 406.079V405.727C475.884 402.85 477.026 400.091 479.058 398.057C481.091 396.023 483.847 394.88 486.722 394.88H486.723L491.809 391.018L501.299 394.88L503.73 394.881L503.729 406.08Z" fill="#2F2E41"/>
<path d="M450.527 189.752L436.765 273.616L440.51 286.113L435.595 294.964L442.813 372.694L439.883 379.149L448.068 384.201H464.724L465.608 313.831L469.723 303.499V297.805L478.098 254.895L479.64 314.988L482.076 325.336L480.03 332.703L482.704 337.865L489.807 385.734H508.484L507.039 374.597C508.666 373.773 509.973 372.431 510.755 370.782C511.536 369.134 511.748 367.272 511.357 365.489L510.286 360.608L512.723 346.175L517.162 265.656L515.91 200.687L494.062 183.967L450.527 189.752Z" fill="#2F2E41"/>
<path d="M482.076 82.0612C491.66 82.0612 499.429 74.2862 499.429 64.6954C499.429 55.1045 491.66 47.3296 482.076 47.3296C472.493 47.3296 464.724 55.1045 464.724 64.6954C464.724 74.2862 472.493 82.0612 482.076 82.0612Z" fill="#9E616A"/>
<path d="M444.164 223.032C444.919 222.251 445.494 221.314 445.848 220.287C446.202 219.26 446.327 218.167 446.213 217.086C446.1 216.006 445.751 214.963 445.192 214.032C444.632 213.1 443.875 212.303 442.974 211.696L449.722 186.159L436.722 190.535L432.307 214.115C431.389 215.697 431.082 217.561 431.446 219.354C431.809 221.147 432.817 222.745 434.278 223.844C435.739 224.943 437.553 225.467 439.375 225.318C441.197 225.168 442.901 224.355 444.164 223.032H444.164Z" fill="#9E616A"/>
<path d="M451.265 100.423L448.474 99.8438L446.095 101.162C446.095 101.162 439.447 110.033 439.447 118.164C439.447 126.295 431.322 204.649 431.322 204.649L446.095 211.302L457.912 149.949L451.265 100.423Z" fill="#CFCFDE"/>
<path d="M497.272 51.9631C497.272 51.9631 501.811 43.2802 491.826 42.4909C491.826 42.4909 483.314 34.7633 474.638 41.0782C474.638 41.0782 469.905 41.0782 467.318 46.4376C467.318 46.4376 463.596 45.0249 462.778 48.8057C462.778 48.8057 460.054 56.6992 462.778 63.8034C465.501 70.9076 466.406 71.697 466.406 71.697C466.406 71.697 461.93 56.8027 472.824 56.0133C483.717 55.2239 495.907 48.411 496.815 57.0939C497.723 65.7768 499.089 67.9162 499.089 67.9162C499.089 67.9162 507.711 55.5152 497.272 51.9631Z" fill="#2F2E41"/>
<path d="M560.659 294.964C559.349 294.966 558.085 294.483 557.109 293.609L504.596 246.827C503.537 245.882 502.897 244.555 502.815 243.138C502.732 241.722 503.215 240.33 504.157 239.269L537.797 201.448C538.742 200.388 540.067 199.747 541.483 199.665C542.899 199.582 544.289 200.066 545.35 201.008L597.864 247.791C598.923 248.735 599.565 250.061 599.647 251.478C599.729 252.896 599.246 254.288 598.303 255.348L564.662 293.169C564.196 293.696 563.63 294.125 562.998 294.431C562.365 294.738 561.678 294.916 560.976 294.954C560.87 294.961 560.764 294.964 560.659 294.964Z" fill="white"/>
<path d="M560.658 295.308C559.265 295.31 557.919 294.796 556.881 293.866L504.367 247.084C503.241 246.078 502.559 244.666 502.472 243.158C502.384 241.65 502.898 240.169 503.9 239.039L537.541 201.218C538.546 200.091 539.956 199.409 541.463 199.322C542.97 199.234 544.45 199.748 545.579 200.751L598.092 247.533C599.22 248.538 599.903 249.95 599.99 251.458C600.078 252.967 599.563 254.448 598.559 255.577L564.918 293.398C564.423 293.958 563.821 294.415 563.148 294.741C562.474 295.067 561.743 295.257 560.996 295.298C560.883 295.304 560.771 295.308 560.658 295.308ZM541.795 200.687C541.186 200.686 540.583 200.814 540.027 201.063C539.47 201.313 538.973 201.677 538.568 202.133L504.927 239.954C504.167 240.811 503.777 241.935 503.844 243.078C503.91 244.222 504.427 245.293 505.282 246.056L557.795 292.838C558.219 293.215 558.712 293.505 559.248 293.692C559.784 293.878 560.351 293.957 560.917 293.924C561.483 293.891 562.037 293.747 562.547 293.5C563.058 293.252 563.514 292.907 563.891 292.483L597.532 254.662C598.294 253.806 598.684 252.682 598.618 251.538C598.551 250.394 598.033 249.323 597.178 248.561L544.664 201.779C543.875 201.074 542.853 200.685 541.795 200.687H541.795Z" fill="#2F2E41"/>
<path d="M579.702 259.145C579.134 259.146 578.587 258.938 578.164 258.56L536.943 221.837C536.714 221.635 536.528 221.39 536.395 221.116C536.262 220.842 536.184 220.545 536.165 220.24C536.147 219.936 536.189 219.631 536.289 219.343C536.389 219.055 536.545 218.79 536.747 218.562C536.95 218.334 537.195 218.149 537.469 218.016C537.744 217.884 538.041 217.807 538.346 217.789C538.65 217.772 538.954 217.815 539.242 217.916C539.529 218.017 539.794 218.173 540.021 218.377L581.242 255.099C581.593 255.412 581.84 255.823 581.952 256.279C582.063 256.736 582.033 257.215 581.866 257.654C581.699 258.093 581.403 258.471 581.016 258.737C580.629 259.003 580.171 259.146 579.702 259.145Z" fill="#6C63FF"/>
<path d="M571.839 267.984C571.272 267.985 570.724 267.777 570.301 267.399L529.08 230.676C528.853 230.474 528.668 230.229 528.536 229.955C528.403 229.682 528.326 229.384 528.309 229.081C528.291 228.777 528.333 228.473 528.433 228.186C528.533 227.898 528.688 227.634 528.891 227.406C529.093 227.179 529.338 226.994 529.611 226.862C529.885 226.729 530.182 226.652 530.485 226.634C530.789 226.617 531.092 226.659 531.38 226.759C531.667 226.859 531.931 227.014 532.158 227.217L573.38 263.939C573.73 264.251 573.978 264.663 574.089 265.119C574.201 265.575 574.171 266.055 574.004 266.494C573.837 266.932 573.54 267.31 573.153 267.576C572.767 267.843 572.308 267.985 571.839 267.984H571.839Z" fill="#6C63FF"/>
<path d="M563.977 276.825C563.409 276.826 562.862 276.617 562.438 276.239L521.217 239.517C520.99 239.315 520.804 239.07 520.671 238.796C520.539 238.522 520.461 238.225 520.443 237.921C520.426 237.617 520.468 237.312 520.568 237.025C520.668 236.737 520.823 236.472 521.025 236.245C521.228 236.018 521.473 235.832 521.747 235.7C522.02 235.567 522.318 235.49 522.621 235.473C522.925 235.455 523.229 235.498 523.516 235.598C523.804 235.698 524.068 235.854 524.295 236.057L565.516 272.779C565.867 273.091 566.115 273.503 566.226 273.959C566.338 274.415 566.308 274.895 566.141 275.334C565.974 275.773 565.677 276.15 565.291 276.417C564.904 276.683 564.446 276.825 563.977 276.825H563.977Z" fill="#6C63FF"/>
<path d="M516.837 224.539C516.308 223.59 515.993 222.536 515.915 221.452C515.837 220.368 515.997 219.281 516.384 218.265C516.772 217.25 517.377 216.333 518.157 215.577C518.937 214.821 519.873 214.245 520.9 213.891L520.945 187.476L532.382 195.052L530.586 218.975C531.067 220.74 530.884 222.62 530.072 224.259C529.26 225.899 527.875 227.183 526.181 227.869C524.486 228.554 522.599 228.594 520.876 227.981C519.154 227.367 517.717 226.142 516.836 224.539H516.837Z" fill="#9E616A"/>
<path d="M517.894 107.661L523.003 102.732L526.757 105.444C526.757 105.444 530.45 109.879 533.405 123.184C536.359 136.49 533.405 209.67 533.405 209.67L517.155 207.452L519.371 169.014L512.723 136.49L517.894 107.661Z" fill="#CFCFDE"/>
<path d="M525.439 103.935L508.224 95.7052L496.536 84.8559L475.223 84.6963L468.347 93.6411L450.197 99.8115L453.222 162.447L451.159 167.263C451.159 167.263 452.596 168.563 453.253 169.289C453.909 170.016 452.346 176.099 452.346 176.099L451.464 182.716L453.909 184.465L450.73 188.223L449.941 194.147C449.941 194.147 505.434 180.343 515.92 203.211C516.474 204.419 515.11 192.611 515.11 192.611L513.745 183.967L515.099 176.208L517.161 174.144L513.702 170.682L515.92 154.255L525.439 103.935Z" fill="#2F2E41"/>
<path d="M135.036 242.793C135.463 241.707 135.648 240.541 135.576 239.376C135.504 238.212 135.178 237.077 134.62 236.052C134.063 235.027 133.288 234.137 132.35 233.445C131.411 232.752 130.333 232.274 129.19 232.044L125.366 203.941L114.278 213.641L119.609 238.841C119.35 240.788 119.813 242.763 120.912 244.391C122.01 246.019 123.667 247.187 125.569 247.674C127.47 248.161 129.484 247.934 131.229 247.034C132.974 246.134 134.329 244.625 135.036 242.793V242.793Z" fill="#FFB6B6"/>
<path d="M91.595 118.297L88.5896 118.873L86.773 121.162C86.773 121.162 83.8341 132.698 87.182 140.76C90.5298 148.822 114.735 229.862 114.735 229.862L132.121 230.366L118.578 164.661L91.595 118.297Z" fill="#2F2E41"/>
<path d="M160.135 238.67C159.334 237.822 158.729 236.809 158.362 235.702C157.995 234.594 157.875 233.42 158.01 232.261C158.145 231.102 158.533 229.987 159.146 228.994C159.758 228.001 160.581 227.155 161.556 226.515L154.634 199.012L168.536 203.875L172.978 229.247C173.944 230.957 174.249 232.962 173.837 234.883C173.424 236.803 172.322 238.506 170.739 239.667C169.156 240.829 167.202 241.369 165.248 241.185C163.294 241.001 161.475 240.107 160.135 238.67Z" fill="#FFB6B6"/>
<path d="M154.061 106.942L157.065 106.355L159.603 107.801C159.603 107.801 166.628 117.409 166.525 126.139C166.422 134.869 174.155 219.097 174.155 219.097L158.211 226.053L146.298 160.032L154.061 106.942Z" fill="#2F2E41"/>
</g>
<defs>
<clipPath id="clip0_771_629">
<rect width="600" height="406.08" fill="white"/>
</clipPath>
</defs>
</svg>
