<svg width="109" height="27" viewBox="0 0 109 27" fill="none" xmlns="http://www.w3.org/2000/svg">
<path fill-rule="evenodd" clip-rule="evenodd" d="M28.3165 9.01456C28.3167 5.29811 25.9283 1.96253 22.3017 0.614351C18.6751 -0.733831 14.5538 0.181794 11.9227 2.92023H0V26.9509H25.1734V15.7201C27.1717 14.0133 28.3147 11.5748 28.3165 9.01456ZM23.4712 9.01456C23.4751 10.794 22.3557 12.4002 20.6354 13.0837C18.9152 13.7672 16.9332 13.3933 15.6143 12.1364C14.2955 10.8794 13.8998 8.98731 14.6119 7.34299C15.324 5.69867 17.0036 4.62629 18.8668 4.62628C21.406 4.62628 23.466 6.58951 23.4712 9.01456ZM4.84345 22.3254H20.3296V17.9188C19.8465 17.9953 19.3577 18.035 18.8679 18.0375C13.6519 18.0324 9.42483 13.9957 9.41956 9.01456C9.42376 8.52196 9.4717 8.03058 9.56286 7.54572H4.84345V22.3254Z" fill="#9893A3" fill-opacity="0.6"/>
<path d="M40.3182 20.1509C39.3982 20.1509 38.4915 20.0043 37.5982 19.7109C36.7182 19.4043 35.9715 18.9643 35.3582 18.3909L36.6582 16.0509C37.3115 16.4776 37.9382 16.8109 38.5382 17.0509C39.1515 17.2909 39.7048 17.4109 40.1982 17.4109C40.7448 17.4109 41.0182 17.2509 41.0182 16.9309C41.0182 16.7576 40.9048 16.6176 40.6782 16.5109C40.4648 16.4043 40.1182 16.2776 39.6382 16.1309C38.8115 15.8376 38.1182 15.5643 37.5582 15.3109C37.0115 15.0576 36.5982 14.7509 36.3182 14.3909C36.0515 14.0176 35.9182 13.5243 35.9182 12.9109C35.9182 11.8309 36.3182 10.9443 37.1182 10.2509C37.9182 9.5576 39.0248 9.21094 40.4382 9.21094C41.1448 9.21094 41.8515 9.32427 42.5582 9.55094C43.2782 9.76427 43.9715 10.1576 44.6382 10.7309L43.1982 13.0509C42.5315 12.6376 41.9648 12.3443 41.4982 12.1709C41.0448 11.9976 40.6382 11.9109 40.2782 11.9109C39.7182 11.9109 39.4382 12.0976 39.4382 12.4709C39.4382 12.6709 39.5448 12.8243 39.7582 12.9309C39.9715 13.0376 40.3115 13.1576 40.7782 13.2909C41.6848 13.5576 42.4248 13.8309 42.9982 14.1109C43.5715 14.3776 43.9915 14.7043 44.2582 15.0909C44.5382 15.4776 44.6782 15.9843 44.6782 16.6109C44.6782 17.7176 44.2848 18.5843 43.4982 19.2109C42.7248 19.8376 41.6648 20.1509 40.3182 20.1509Z" fill="#9893A3" fill-opacity="0.6"/>
<path d="M51.0577 20.1509C50.2044 20.1509 49.4377 19.9109 48.7577 19.4309C48.0777 18.9509 47.5444 18.2976 47.1577 17.4709C46.771 16.6443 46.5777 15.7043 46.5777 14.6509C46.5777 13.6109 46.7844 12.6843 47.1977 11.8709C47.6244 11.0576 48.2044 10.4176 48.9377 9.95094C49.671 9.47094 50.5044 9.23094 51.4377 9.23094C52.2244 9.23094 52.891 9.39094 53.4377 9.71094C53.9977 10.0309 54.4644 10.4776 54.8377 11.0509V9.43094H58.1377V24.2309H54.3377V18.3909C53.7244 19.5643 52.631 20.1509 51.0577 20.1509ZM52.5377 16.9509C53.2444 16.9509 53.8444 16.5909 54.3377 15.8709V13.9909C54.1644 13.5243 53.891 13.1509 53.5177 12.8709C53.1577 12.5776 52.7777 12.4309 52.3777 12.4309C51.831 12.4309 51.371 12.6576 50.9977 13.1109C50.6377 13.5643 50.4577 14.1109 50.4577 14.7509C50.4577 15.4043 50.651 15.9376 51.0377 16.3509C51.4244 16.7509 51.9244 16.9509 52.5377 16.9509Z" fill="#9893A3" fill-opacity="0.6"/>
<path d="M60.9669 16.3509V9.43094H64.7669V15.4909C64.7669 15.9443 64.8669 16.3043 65.0669 16.5709C65.2802 16.8243 65.5669 16.9509 65.9269 16.9509C66.2202 16.9509 66.5202 16.8843 66.8269 16.7509C67.1336 16.6176 67.4402 16.3243 67.7469 15.8709V9.43094H71.5469V15.7509C71.5469 16.1109 71.6002 16.3643 71.7069 16.5109C71.8136 16.6443 72.0002 16.7243 72.2669 16.7509V19.9509C71.6136 20.0843 71.0802 20.1509 70.6669 20.1509C69.3736 20.1509 68.6269 19.6643 68.4269 18.6909L68.3469 18.3109C67.8536 18.9643 67.2602 19.4376 66.5669 19.7309C65.8869 20.0109 65.1136 20.1509 64.2469 20.1509C63.1936 20.1509 62.3802 19.8243 61.8069 19.1709C61.2469 18.5176 60.9669 17.5776 60.9669 16.3509Z" fill="#9893A3" fill-opacity="0.6"/>
<path d="M74.2408 16.7709C74.2408 16.0643 74.4341 15.4443 74.8208 14.9109C75.2075 14.3643 75.7408 13.9376 76.4208 13.6309C77.1141 13.3243 77.9008 13.1709 78.7808 13.1709C79.6341 13.1709 80.3408 13.3043 80.9008 13.5709V13.2509C80.9008 12.7576 80.7541 12.3909 80.4608 12.1509C80.1808 11.9109 79.7208 11.7909 79.0808 11.7909C78.4941 11.7909 77.9408 11.8909 77.4208 12.0909C76.9141 12.2776 76.3808 12.5576 75.8208 12.9309L74.7208 10.5709C76.1075 9.6776 77.6875 9.23094 79.4608 9.23094C81.1275 9.23094 82.4141 9.61094 83.3208 10.3709C84.2408 11.1176 84.7008 12.2309 84.7008 13.7109V15.7509C84.7008 16.1109 84.7541 16.3643 84.8608 16.5109C84.9675 16.6443 85.1541 16.7243 85.4208 16.7509V19.9509C85.1141 20.0176 84.8208 20.0643 84.5408 20.0909C84.2741 20.1309 84.0341 20.1509 83.8208 20.1509C83.1408 20.1509 82.6208 20.0309 82.2608 19.7909C81.9141 19.5376 81.6875 19.1709 81.5808 18.6909L81.5008 18.3109C80.5408 19.5376 79.3475 20.1509 77.9208 20.1509C77.2275 20.1509 76.6008 20.0043 76.0408 19.7109C75.4808 19.4176 75.0408 19.0176 74.7208 18.5109C74.4008 17.9909 74.2408 17.4109 74.2408 16.7709ZM80.4008 17.0309C80.7341 16.8043 80.9008 16.5576 80.9008 16.2909V15.5109C80.6875 15.4309 80.4408 15.3643 80.1608 15.3109C79.8941 15.2576 79.6541 15.2309 79.4408 15.2309C78.9875 15.2309 78.6008 15.3443 78.2808 15.5709C77.9741 15.7976 77.8208 16.0843 77.8208 16.4309C77.8208 16.7243 77.9341 16.9643 78.1608 17.1509C78.4008 17.3376 78.7008 17.4309 79.0608 17.4309C79.5541 17.4309 80.0008 17.2976 80.4008 17.0309Z" fill="#9893A3" fill-opacity="0.6"/>
<path d="M94.9335 12.6709C94.2001 12.6709 93.5335 12.7509 92.9335 12.9109C92.3335 13.0709 91.8868 13.3376 91.5935 13.7109V19.9509H87.7935V9.43094H91.2735V11.4309C91.6468 10.7243 92.1135 10.1843 92.6735 9.81094C93.2335 9.42427 93.8268 9.23094 94.4535 9.23094C94.7068 9.23094 94.8668 9.2376 94.9335 9.25094V12.6709Z" fill="#9893A3" fill-opacity="0.6"/>
<path d="M102.294 20.1509C101.067 20.1509 100.02 19.9043 99.1538 19.4109C98.3004 18.9176 97.6471 18.2643 97.1938 17.4509C96.7538 16.6376 96.5338 15.7643 96.5338 14.8309C96.5338 13.8176 96.7538 12.8909 97.1938 12.0509C97.6338 11.1976 98.2804 10.5176 99.1338 10.0109C99.9871 9.49094 101.04 9.23094 102.294 9.23094C103.547 9.23094 104.6 9.48427 105.454 9.99094C106.307 10.4976 106.954 11.1643 107.394 11.9909C107.834 12.8176 108.054 13.7176 108.054 14.6909C108.054 15.1043 108.02 15.4909 107.954 15.8509H100.574C100.614 16.4109 100.82 16.8176 101.194 17.0709C101.567 17.3109 101.974 17.4309 102.414 17.4309C102.827 17.4309 103.214 17.3376 103.574 17.1509C103.947 16.9643 104.194 16.7043 104.314 16.3709L107.534 17.2909C107.107 18.1309 106.447 18.8176 105.554 19.3509C104.66 19.8843 103.574 20.1509 102.294 20.1509ZM100.494 13.5709H103.974C103.92 13.0643 103.734 12.6643 103.414 12.3709C103.107 12.0776 102.714 11.9309 102.234 11.9309C101.754 11.9309 101.36 12.0776 101.054 12.3709C100.747 12.6643 100.56 13.0643 100.494 13.5709Z" fill="#9893A3" fill-opacity="0.6"/>
</svg>
