<svg width="100" height="24" viewBox="0 0 100 24" fill="none" xmlns="http://www.w3.org/2000/svg">
<path fill-rule="evenodd" clip-rule="evenodd" d="M0.348128 10.3847C1.63995 4.28306 6.30257 0 11.6531 0C17.0037 0 21.6663 4.28306 22.9581 10.3847H21.937C20.2144 10.3549 18.5271 10.9599 17.112 12.1147C17.0304 12.1842 16.9451 12.2477 16.8567 12.3047H16.7376C16.6493 12.2477 16.564 12.1842 16.4823 12.1147C13.5623 9.80724 9.744 9.80724 6.82393 12.1147C6.74227 12.1842 6.65701 12.2477 6.56864 12.3047H6.44951C6.36115 12.2477 6.27589 12.1842 6.19422 12.1147C4.77919 10.9599 3.09189 10.3549 1.36928 10.3847H0.348128ZM20.0997 16.6547C20.6239 16.175 21.2736 15.924 21.9377 15.9447H23.3078V12.7347H21.9377C20.7679 12.7181 19.6247 13.146 18.6786 13.9547C17.5856 14.9016 16.0954 14.9016 15.0024 13.9547C13.0154 12.3293 10.3774 12.3293 8.39046 13.9547C7.29754 14.9016 5.80724 14.9016 4.71432 13.9547C3.75648 13.1357 2.59696 12.7072 1.41259 12.7347H0V15.9447H1.37005C2.03423 15.924 2.68392 16.175 3.20812 16.6547C5.19166 18.2813 7.82803 18.2813 9.81157 16.6547C10.3364 16.1765 10.9857 15.9257 11.6496 15.9447C12.314 15.9223 12.9642 16.1735 13.4877 16.6547C15.4747 18.2801 18.1127 18.2801 20.0997 16.6547ZM21.9377 21.6847C21.2736 21.664 20.6239 21.915 20.0997 22.3947C18.1127 24.0201 15.4747 24.0201 13.4877 22.3947C12.9642 21.9135 12.314 21.6623 11.6496 21.6847C10.9857 21.6657 10.3364 21.9165 9.81157 22.3947C7.82803 24.0213 5.19166 24.0213 3.20812 22.3947C2.68392 21.915 2.03423 21.664 1.37005 21.6847H0V18.4747H1.41259C2.59696 18.4472 3.75648 18.8757 4.71432 19.6947C5.80724 20.6416 7.29754 20.6416 8.39046 19.6947C10.3774 18.0693 13.0154 18.0693 15.0024 19.6947C16.0954 20.6416 17.5856 20.6416 18.6786 19.6947C19.6247 18.886 20.7679 18.4581 21.9377 18.4747H23.3078V21.6847H21.9377Z" fill="#9893A3" fill-opacity="0.6"/>
<path d="M34.1323 19.2348C33.079 19.2348 32.3123 18.9014 31.8323 18.2348C31.3523 17.5548 31.1123 16.5881 31.1123 15.3348V9.17476H33.4123V15.0348C33.4123 15.8481 33.5323 16.4214 33.7723 16.7548C34.0123 17.0881 34.399 17.2548 34.9323 17.2548C35.359 17.2548 35.7323 17.1481 36.0523 16.9348C36.3856 16.7214 36.739 16.3748 37.1123 15.8948V9.17476H39.4123V18.9948H37.5323L37.3523 17.5548H37.2923C36.8656 18.0614 36.399 18.4681 35.8923 18.7748C35.399 19.0814 34.8123 19.2348 34.1323 19.2348Z" fill="#9893A3" fill-opacity="0.6"/>
<path d="M41.3256 18.9948V9.17476H43.2256L43.3856 10.5148H43.4656C43.8789 10.0748 44.3256 9.70142 44.8056 9.39476C45.2989 9.08809 45.8523 8.93476 46.4656 8.93476C47.1856 8.93476 47.7589 9.08809 48.1856 9.39476C48.6256 9.70142 48.9589 10.1348 49.1856 10.6948C49.6523 10.1881 50.1389 9.76809 50.6456 9.43476C51.1523 9.10142 51.7189 8.93476 52.3456 8.93476C53.3856 8.93476 54.1523 9.27476 54.6456 9.95476C55.1389 10.6214 55.3856 11.5814 55.3856 12.8348V18.9948H53.0656V13.1348C53.0656 12.3214 52.9389 11.7481 52.6856 11.4148C52.4456 11.0814 52.0723 10.9148 51.5656 10.9148C50.9523 10.9148 50.2656 11.3214 49.5056 12.1348V18.9948H47.2056V13.1348C47.2056 12.3214 47.0789 11.7481 46.8256 11.4148C46.5856 11.0814 46.2056 10.9148 45.6856 10.9148C45.0723 10.9148 44.3856 11.3214 43.6256 12.1348V18.9948H41.3256Z" fill="#9893A3" fill-opacity="0.6"/>
<path d="M61.9411 19.2348C61.4877 19.2348 61.0277 19.1281 60.5611 18.9148C60.1077 18.6881 59.6744 18.3681 59.2611 17.9548H59.2011L59.0011 18.9948H57.1811V4.87476H59.4811V8.51476L59.4211 10.1548C59.8344 9.79476 60.2811 9.50142 60.7611 9.27476C61.2544 9.04809 61.7544 8.93476 62.2611 8.93476C62.8744 8.93476 63.4211 9.05476 63.9011 9.29476C64.3811 9.52142 64.7877 9.85476 65.1211 10.2948C65.4544 10.7214 65.7077 11.2414 65.8811 11.8548C66.0544 12.4681 66.1411 13.1548 66.1411 13.9148C66.1411 14.7548 66.0211 15.5081 65.7811 16.1748C65.5544 16.8281 65.2477 17.3814 64.8611 17.8348C64.4744 18.2881 64.0277 18.6348 63.5211 18.8748C63.0144 19.1148 62.4877 19.2348 61.9411 19.2348ZM61.4611 17.3348C62.1144 17.3348 62.6611 17.0548 63.1011 16.4948C63.5411 15.9214 63.7611 15.0748 63.7611 13.9548C63.7611 12.9681 63.5944 12.2014 63.2611 11.6548C62.9277 11.1081 62.3877 10.8348 61.6411 10.8348C60.9477 10.8348 60.2277 11.2014 59.4811 11.9348V16.5148C59.8277 16.8214 60.1677 17.0348 60.5011 17.1548C60.8477 17.2748 61.1677 17.3348 61.4611 17.3348Z" fill="#9893A3" fill-opacity="0.6"/>
<path d="M67.4506 18.9948V9.17476H69.3506L69.5106 10.9148H69.5906C69.9373 10.2748 70.3573 9.78809 70.8506 9.45476C71.3439 9.10809 71.8506 8.93476 72.3706 8.93476C72.8373 8.93476 73.2106 9.00142 73.4906 9.13476L73.0906 11.1348C72.9173 11.0814 72.7573 11.0414 72.6106 11.0148C72.4639 10.9881 72.2839 10.9748 72.0706 10.9748C71.6839 10.9748 71.2773 11.1281 70.8506 11.4348C70.4239 11.7281 70.0573 12.2481 69.7506 12.9948V18.9948H67.4506Z" fill="#9893A3" fill-opacity="0.6"/>
<path d="M77.9162 19.2348C77.2362 19.2348 76.6029 19.1214 76.0162 18.8948C75.4295 18.6548 74.9162 18.3148 74.4762 17.8748C74.0362 17.4348 73.6895 16.9014 73.4362 16.2748C73.1962 15.6348 73.0762 14.9081 73.0762 14.0948C73.0762 13.2948 73.2029 12.5748 73.4562 11.9348C73.7095 11.2948 74.0429 10.7548 74.4562 10.3148C74.8829 9.87476 75.3695 9.53476 75.9162 9.29476C76.4629 9.05476 77.0229 8.93476 77.5962 8.93476C78.2629 8.93476 78.8495 9.04809 79.3562 9.27476C79.8629 9.50142 80.2829 9.82142 80.6162 10.2348C80.9629 10.6481 81.2229 11.1414 81.3962 11.7148C81.5695 12.2881 81.6562 12.9148 81.6562 13.5948C81.6562 13.8214 81.6429 14.0348 81.6162 14.2348C81.6029 14.4348 81.5829 14.5948 81.5562 14.7148H75.3162C75.4229 15.5948 75.7295 16.2748 76.2362 16.7548C76.7562 17.2214 77.4162 17.4548 78.2162 17.4548C78.6429 17.4548 79.0362 17.3948 79.3962 17.2748C79.7695 17.1414 80.1362 16.9614 80.4962 16.7348L81.2762 18.1748C80.8095 18.4814 80.2895 18.7348 79.7162 18.9348C79.1429 19.1348 78.5429 19.2348 77.9162 19.2348ZM75.2962 13.1548H79.6562C79.6562 12.3948 79.4895 11.8014 79.1562 11.3748C78.8362 10.9348 78.3362 10.7148 77.6562 10.7148C77.0695 10.7148 76.5562 10.9214 76.1162 11.3348C75.6762 11.7481 75.4029 12.3548 75.2962 13.1548Z" fill="#9893A3" fill-opacity="0.6"/>
<path d="M85.0929 19.2348C84.2663 19.2348 83.6863 18.9881 83.3529 18.4948C83.0196 18.0014 82.8529 17.3281 82.8529 16.4748V4.87476H85.1529V16.5948C85.1529 16.8748 85.2063 17.0748 85.3129 17.1948C85.4196 17.3014 85.5329 17.3548 85.6529 17.3548C85.7063 17.3548 85.7529 17.3548 85.7929 17.3548C85.8463 17.3548 85.9196 17.3414 86.0129 17.3148L86.3129 19.0348C86.0063 19.1681 85.5996 19.2348 85.0929 19.2348Z" fill="#9893A3" fill-opacity="0.6"/>
<path d="M89.5226 19.2348C88.6959 19.2348 88.1159 18.9881 87.7826 18.4948C87.4493 18.0014 87.2826 17.3281 87.2826 16.4748V4.87476H89.5826V16.5948C89.5826 16.8748 89.636 17.0748 89.7426 17.1948C89.8493 17.3014 89.9626 17.3548 90.0826 17.3548C90.136 17.3548 90.1826 17.3548 90.2226 17.3548C90.276 17.3548 90.3493 17.3414 90.4426 17.3148L90.7426 19.0348C90.436 19.1681 90.0293 19.2348 89.5226 19.2348Z" fill="#9893A3" fill-opacity="0.6"/>
<path d="M94.0923 19.2348C93.2256 19.2348 92.5256 18.9748 91.9923 18.4548C91.459 17.9214 91.1923 17.2214 91.1923 16.3548C91.1923 15.8348 91.299 15.3748 91.5123 14.9748C91.739 14.5614 92.0856 14.2081 92.5523 13.9148C93.0323 13.6214 93.6323 13.3748 94.3523 13.1748C95.0856 12.9748 95.959 12.8214 96.9723 12.7148C96.959 12.4614 96.919 12.2214 96.8523 11.9948C96.799 11.7548 96.699 11.5481 96.5523 11.3748C96.419 11.1881 96.239 11.0481 96.0123 10.9548C95.7856 10.8481 95.5056 10.7948 95.1723 10.7948C94.6923 10.7948 94.219 10.8881 93.7523 11.0748C93.299 11.2614 92.8523 11.4881 92.4123 11.7548L91.5723 10.2148C92.119 9.86809 92.7323 9.56809 93.4123 9.31476C94.0923 9.06142 94.8256 8.93476 95.6123 8.93476C96.839 8.93476 97.7523 9.30142 98.3523 10.0348C98.9656 10.7548 99.2723 11.8014 99.2723 13.1748V18.9948H97.3723L97.2123 17.9148H97.1323C96.6923 18.2881 96.219 18.6014 95.7123 18.8548C95.219 19.1081 94.679 19.2348 94.0923 19.2348ZM94.8323 17.4348C95.2323 17.4348 95.5923 17.3414 95.9123 17.1548C96.2456 16.9681 96.599 16.7014 96.9723 16.3548V14.1548C96.3056 14.2348 95.7456 14.3414 95.2923 14.4748C94.839 14.6081 94.4723 14.7614 94.1923 14.9348C93.9123 15.0948 93.7123 15.2814 93.5923 15.4948C93.4723 15.7081 93.4123 15.9348 93.4123 16.1748C93.4123 16.6148 93.5456 16.9348 93.8123 17.1348C94.079 17.3348 94.419 17.4348 94.8323 17.4348Z" fill="#9893A3" fill-opacity="0.6"/>
</svg>
